<svg width="107" height="35" viewBox="0 0 107 35" fill="none" xmlns="http://www.w3.org/2000/svg">
<g clip-path="url(#clip0_3471_1550)">
<path d="M98.4792 0.00011375H8.52562C8.19773 0.00011375 7.87377 0.00011375 7.54675 0.00186375C7.273 0.00361375 7.00143 0.0086975 6.72505 0.0129762C6.12463 0.0198903 5.52562 0.0715805 4.93322 0.167598C4.34166 0.265705 3.76863 0.450665 3.23351 0.716222C2.69905 0.984026 2.2107 1.33201 1.78617 1.74755C1.35941 2.16192 1.00367 2.64088 0.732638 3.166C0.460855 3.69008 0.2724 4.25169 0.173782 4.83141C0.0742259 5.4104 0.0206539 5.99607 0.0135467 6.58316C0.00524878 6.85143 0.00437249 7.1206 0 7.38891V27.6139C0.00437249 27.8856 0.00524878 28.1488 0.0135467 28.4206C0.0206561 29.0076 0.0742281 29.5932 0.173782 30.1722C0.272128 30.7523 0.460594 31.3142 0.732638 31.8385C1.00355 32.3619 1.35934 32.8389 1.78617 33.251C2.20909 33.6684 2.69776 34.0166 3.23351 34.2824C3.76863 34.5486 4.3416 34.7347 4.93322 34.8343C5.52572 34.9295 6.12467 34.9813 6.72505 34.989C7.00143 34.995 7.273 34.9984 7.54675 34.9984C7.87376 35.0001 8.19775 35.0001 8.52562 35.0001H98.4792C98.8006 35.0001 99.1271 35.0001 99.4485 34.9984C99.7209 34.9984 100 34.995 100.273 34.989C100.872 34.9817 101.47 34.93 102.061 34.8343C102.655 34.734 103.23 34.548 103.767 34.2824C104.303 34.0164 104.791 33.6682 105.213 33.251C105.639 32.8373 105.996 32.3606 106.27 31.8385C106.54 31.3138 106.727 30.7519 106.824 30.1722C106.923 29.5932 106.979 29.0077 106.99 28.4206C106.993 28.1488 106.993 27.8856 106.993 27.6139C107 27.296 107 26.9799 107 26.6568V8.34423C107 8.02379 107 7.70592 106.993 7.38891C106.993 7.1206 106.993 6.85143 106.99 6.58312C106.979 5.99598 106.923 5.41045 106.824 4.83137C106.726 4.25199 106.54 3.69043 106.27 3.16597C105.718 2.11341 104.843 1.25664 103.767 0.716144C103.23 0.451235 102.655 0.266324 102.061 0.167519C101.47 0.0710787 100.872 0.0193705 100.273 0.0128537C100 0.00858375 99.7209 0.00345625 99.4485 0.00175C99.1271 0 98.8006 0.00011375 98.4792 0.00011375Z" fill="#A6A6A6"/>
<path d="M7.55174 34.2344C7.27931 34.2344 7.01345 34.231 6.74315 34.225C6.18321 34.2179 5.62457 34.1702 5.07183 34.0823C4.55642 33.9954 4.05713 33.8339 3.59042 33.6029C3.12799 33.3738 2.70622 33.0735 2.34126 32.7134C1.97102 32.3575 1.66278 31.9447 1.42875 31.4914C1.19215 31.0352 1.0284 30.5462 0.94322 30.0414C0.851232 29.499 0.801462 28.9505 0.794341 28.4007C0.788672 28.2162 0.78125 27.6018 0.78125 27.6018V7.3888C0.78125 7.3888 0.789154 6.78381 0.794385 6.60607C0.801204 6.05717 0.850684 5.50957 0.942397 4.96801C1.02774 4.46184 1.19161 3.9714 1.42834 3.51368C1.66151 3.0607 1.96804 2.64763 2.33605 2.29047C2.70365 1.92992 3.12677 1.62803 3.58998 1.39581C4.05562 1.16558 4.55396 1.00514 5.06833 0.919861C5.62289 0.831107 6.18347 0.783122 6.74535 0.776309L7.55218 0.765625H99.4447L100.261 0.776738C100.818 0.783212 101.373 0.830769 101.923 0.919004C102.442 1.00535 102.946 1.16691 103.417 1.39837C104.345 1.86636 105.1 2.60677 105.576 3.51581C105.809 3.97038 105.971 4.45682 106.055 4.95862C106.148 5.50462 106.2 6.05652 106.21 6.60992C106.213 6.85772 106.213 7.1239 106.213 7.3888C106.22 7.71692 106.22 8.02924 106.22 8.34411V26.6567C106.22 26.9746 106.22 27.2848 106.213 27.5975C106.213 27.882 106.213 28.1427 106.209 28.411C106.199 28.9545 106.148 29.4966 106.057 30.0328C105.973 30.5412 105.81 31.0341 105.574 31.494C105.338 31.9424 105.032 32.3516 104.666 32.7065C104.3 33.0686 103.878 33.3707 103.414 33.6012C102.945 33.834 102.442 33.9961 101.923 34.0823C101.37 34.1706 100.812 34.2183 100.252 34.225C99.9896 34.231 99.7154 34.2344 99.4491 34.2344L98.4798 34.2361L7.55174 34.2344Z" fill="black"/>
<path d="M22.1493 17.7633C22.1589 17.0329 22.3571 16.3169 22.7256 15.6817C23.094 15.0464 23.6206 14.5128 24.2564 14.1302C23.8525 13.5657 23.3196 13.1011 22.7001 12.7734C22.0806 12.4457 21.3916 12.2638 20.6877 12.2423C19.1861 12.088 17.7305 13.1215 16.9653 13.1215C16.1854 13.1215 15.0073 12.2576 13.7387 12.2831C12.9182 12.3091 12.1185 12.5425 11.4175 12.9608C10.7166 13.3791 10.1384 13.968 9.73917 14.67C8.00984 17.5999 9.29976 21.9058 10.9563 24.2741C11.7851 25.4337 12.7538 26.7291 14.0212 26.6832C15.2615 26.6329 15.7247 25.9093 17.2218 25.9093C18.705 25.9093 19.1396 26.6832 20.4328 26.654C21.7636 26.6329 22.6021 25.4892 23.4019 24.3185C23.9973 23.4922 24.4556 22.5789 24.7596 21.6126C23.9864 21.2925 23.3266 20.7569 22.8624 20.0724C22.3982 19.3879 22.1502 18.5848 22.1493 17.7633Z" fill="white"/>
<path d="M19.7077 10.6847C20.4333 9.83223 20.7908 8.73657 20.7042 7.63037C19.5956 7.74431 18.5716 8.2628 17.8361 9.08253C17.4765 9.48299 17.2011 9.94887 17.0256 10.4535C16.8502 10.9582 16.7781 11.4918 16.8134 12.0237C17.3679 12.0293 17.9165 11.9117 18.4179 11.6798C18.9192 11.4478 19.3602 11.1076 19.7077 10.6847Z" fill="white"/>
<path d="M37.8267 23.7475H33.5943L32.5779 26.6844H30.7852L34.7941 15.8186H36.6566L40.6656 26.6844H38.8423L37.8267 23.7475ZM34.0326 22.3922H37.3876L35.7337 17.6259H35.6874L34.0326 22.3922Z" fill="white"/>
<path d="M49.325 22.7235C49.325 25.1853 47.9785 26.767 45.9466 26.767C45.4318 26.7933 44.9199 26.6773 44.4694 26.4322C44.019 26.187 43.6481 25.8227 43.3994 25.381H43.3609V29.3048H41.6992V18.7621H43.3077V20.0797H43.3383C43.5984 19.6401 43.9755 19.2776 44.4294 19.031C44.8833 18.7844 45.3971 18.6628 45.916 18.6792C47.9706 18.6792 49.325 20.2686 49.325 22.7235ZM47.617 22.7235C47.617 21.1196 46.77 20.0652 45.4776 20.0652C44.208 20.0652 43.354 21.1418 43.354 22.7235C43.354 24.3197 44.208 25.3887 45.4776 25.3887C46.77 25.3887 47.617 24.3419 47.617 22.7235Z" fill="white"/>
<path d="M58.2352 22.7235C58.2352 25.1853 56.8887 26.767 54.8567 26.767C54.342 26.7933 53.8301 26.6773 53.3796 26.4322C52.9291 26.187 52.5583 25.8227 52.3096 25.381H52.2711V29.3048H50.6094V18.7621H52.2178V20.0797H52.2484C52.5086 19.64 52.8857 19.2776 53.3396 19.031C53.7935 18.7844 54.3072 18.6628 54.8261 18.6792C56.8808 18.6792 58.2352 20.2685 58.2352 22.7235ZM56.5272 22.7235C56.5272 21.1196 55.6801 20.0652 54.3878 20.0652C53.1181 20.0652 52.2641 21.1418 52.2641 22.7235C52.2641 24.3197 53.1181 25.3887 54.3878 25.3887C55.6801 25.3887 56.5272 24.3419 56.5272 22.7235Z" fill="white"/>
<path d="M64.1229 23.6567C64.246 24.7342 65.3157 25.4417 66.7775 25.4417C68.1781 25.4417 69.1858 24.7341 69.1858 23.7626C69.1858 22.9192 68.578 22.4142 67.139 22.0681L65.6999 21.7289C63.661 21.247 62.7144 20.3138 62.7144 18.7997C62.7144 16.9249 64.384 15.6372 66.7548 15.6372C69.1011 15.6372 70.7096 16.9249 70.7637 18.7997H69.0862C68.9858 17.7153 68.0698 17.0608 66.7312 17.0608C65.3926 17.0608 64.4766 17.723 64.4766 18.6869C64.4766 19.4551 65.0616 19.9071 66.4928 20.2531L67.7162 20.5471C69.9944 21.0743 70.9409 21.9698 70.9409 23.5592C70.9409 25.592 69.2862 26.8652 66.6543 26.8652C64.1919 26.8652 62.5293 25.6219 62.4219 23.6566L64.1229 23.6567Z" fill="white"/>
<path d="M74.5264 16.8872V18.762H76.0658V20.0497H74.5264V24.417C74.5264 25.0955 74.8346 25.4116 75.5113 25.4116C75.6941 25.4085 75.8766 25.3959 76.058 25.374V26.654C75.7537 26.7097 75.4445 26.7349 75.135 26.7292C73.496 26.7292 72.8568 26.1268 72.8568 24.5904V20.0497H71.6797V18.762H72.8568V16.8872H74.5264Z" fill="white"/>
<path d="M76.957 22.7234C76.957 20.2308 78.4572 18.6646 80.7965 18.6646C83.1437 18.6646 84.6369 20.2308 84.6369 22.7234C84.6369 25.2228 83.1516 26.7822 80.7965 26.7822C78.4423 26.7822 76.957 25.2228 76.957 22.7234ZM82.9438 22.7234C82.9438 21.0135 82.143 20.0044 80.7965 20.0044C79.45 20.0044 78.6502 21.0212 78.6502 22.7234C78.6502 24.4401 79.45 25.4415 80.7965 25.4415C82.143 25.4415 82.9438 24.4401 82.9438 22.7234Z" fill="white"/>
<path d="M86.0078 18.762H87.5927V20.1104H87.6311C87.7384 19.6893 87.9905 19.3171 88.3451 19.0564C88.6997 18.7958 89.1352 18.6626 89.5784 18.6791C89.7699 18.6785 89.9609 18.6988 90.1477 18.7398V20.2608C89.906 20.1885 89.6538 20.1553 89.4011 20.1625C89.1597 20.1529 88.919 20.1946 88.6956 20.2846C88.4722 20.3746 88.2714 20.5109 88.1069 20.6841C87.9424 20.8572 87.8181 21.0632 87.7426 21.2877C87.6671 21.5123 87.6422 21.7502 87.6695 21.9851V26.684H86.0078L86.0078 18.762Z" fill="white"/>
<path d="M97.8105 24.3572C97.5869 25.7953 96.1558 26.7822 94.3246 26.7822C91.9696 26.7822 90.5078 25.2382 90.5078 22.761C90.5078 20.2761 91.9774 18.6646 94.2548 18.6646C96.4946 18.6646 97.9031 20.1702 97.9031 22.5721V23.1293H92.1853V23.2275C92.1589 23.5191 92.1962 23.8128 92.2947 24.0892C92.3932 24.3655 92.5507 24.6182 92.7567 24.8304C92.9626 25.0427 93.2124 25.2096 93.4894 25.3201C93.7663 25.4306 94.0642 25.4822 94.3631 25.4714C94.7557 25.5074 95.1498 25.4184 95.4867 25.2177C95.8235 25.0169 96.0851 24.7151 96.2326 24.3572L97.8105 24.3572ZM92.1931 21.9928H96.2405C96.2554 21.7306 96.2148 21.4683 96.1212 21.2223C96.0276 20.9762 95.883 20.7517 95.6965 20.5629C95.5101 20.3741 95.2858 20.2251 95.0377 20.1252C94.7896 20.0252 94.523 19.9765 94.2548 19.9822C93.9842 19.9806 93.7159 20.0315 93.4655 20.1319C93.2151 20.2323 92.9875 20.3802 92.7958 20.5671C92.6042 20.7541 92.4522 20.9763 92.3488 21.221C92.2453 21.4657 92.1924 21.728 92.1931 21.9928Z" fill="white"/>
<path d="M32.8519 9.84672H33.5654C33.6882 9.86168 33.8128 9.85159 33.9314 9.81708C34.0501 9.78256 34.1601 9.72438 34.2546 9.64619C34.3491 9.56799 34.4261 9.47149 34.4806 9.36276C34.5351 9.25403 34.566 9.13544 34.5713 9.01444C34.5713 8.53294 34.2011 8.2219 33.5732 8.2219C33.4474 8.2047 33.3193 8.21234 33.1966 8.24437C33.0738 8.2764 32.9589 8.33218 32.8585 8.4084C32.7582 8.48463 32.6744 8.57976 32.6122 8.68818C32.5501 8.7966 32.5107 8.91611 32.4966 9.03965H31.7133C31.7267 8.81539 31.7873 8.59624 31.891 8.39586C31.9948 8.19547 32.1396 8.01814 32.3165 7.8749C32.4933 7.73166 32.6984 7.62558 32.919 7.56326C33.1396 7.50094 33.3709 7.48372 33.5985 7.51267C34.649 7.51267 35.3887 8.08817 35.3887 8.9166C35.3911 9.19413 35.2962 9.46409 35.1198 9.68142C34.9434 9.89875 34.6962 10.0503 34.4194 10.1108V10.1723C34.7475 10.1865 35.0566 10.3273 35.279 10.5639C35.5013 10.8005 35.6189 11.1136 35.6061 11.4348C35.5818 11.6657 35.5106 11.8895 35.3968 12.0932C35.283 12.2968 35.1287 12.4762 34.9432 12.6208C34.7576 12.7653 34.5443 12.8722 34.316 12.9351C34.0877 12.998 33.8488 13.0156 33.6134 12.987C33.3775 13.0184 33.1376 13.0031 32.9078 12.9419C32.6781 12.8807 32.4634 12.7748 32.2764 12.6307C32.0893 12.4865 31.9339 12.307 31.8193 12.1028C31.7047 11.8985 31.6333 11.6738 31.6094 11.4421H32.4049C32.4529 11.9415 32.9218 12.2637 33.6134 12.2637C34.305 12.2637 34.7564 11.9018 34.7564 11.3917C34.7564 10.8743 34.3312 10.5556 33.5881 10.5556H32.8519V9.84672Z" fill="white"/>
<path d="M36.5117 11.7461C36.5117 11.0369 37.0522 10.628 38.0093 10.5699L39.0999 10.5084V10.1683C39.0999 9.75213 38.8196 9.51715 38.2756 9.51715C37.832 9.51715 37.5255 9.67651 37.4365 9.95508H36.6672C36.7484 9.27832 37.3998 8.84424 38.3132 8.84424C39.3226 8.84424 39.8919 9.33599 39.8919 10.1683V12.8603H39.1261V12.3066H39.0632C38.9356 12.5053 38.7564 12.6672 38.544 12.7759C38.3315 12.8845 38.0933 12.9361 37.8538 12.9253C37.6848 12.9425 37.514 12.9248 37.3524 12.8735C37.1907 12.8221 37.0419 12.7382 36.9154 12.6271C36.789 12.516 36.6877 12.3802 36.6182 12.2284C36.5487 12.0767 36.5124 11.9124 36.5117 11.7461ZM39.0999 11.4094V11.08L38.1166 11.1415C37.5622 11.1778 37.3107 11.3624 37.3107 11.7098C37.3107 12.0644 37.625 12.2707 38.0573 12.2707C38.184 12.2833 38.3119 12.2708 38.4335 12.234C38.5551 12.1971 38.6679 12.1367 38.7652 12.0564C38.8625 11.976 38.9422 11.8773 38.9998 11.7662C39.0573 11.655 39.0913 11.5337 39.0999 11.4094Z" fill="white"/>
<path d="M41.9977 9.57495V12.8605H41.2031V8.92041H43.8542V9.57491L41.9977 9.57495Z" fill="white"/>
<path d="M48.6702 10.8888C48.6702 12.1406 48.0232 12.9255 47.0067 12.9255C46.7572 12.9422 46.5081 12.8887 46.2885 12.7715C46.069 12.6543 45.8883 12.4781 45.7677 12.2637H45.7048V14.1705H44.9102V8.9205H45.6751V9.57165H45.7345C45.8573 9.34978 46.0404 9.16545 46.2635 9.03901C46.4866 8.91257 46.7411 8.84894 46.9989 8.85515C48.0232 8.85512 48.6702 9.63655 48.6702 10.8888ZM47.8529 10.8888C47.8529 10.0565 47.4503 9.55367 46.7771 9.55367C46.1083 9.55367 45.6899 10.0672 45.6899 10.8922C45.6899 11.7134 46.1082 12.2274 46.7736 12.2274C47.4503 12.2274 47.8529 11.7245 47.8529 10.8888Z" fill="white"/>
<path d="M49.7308 14.2717V13.6022C49.8167 13.6129 49.9034 13.6177 49.9901 13.6167C50.1594 13.629 50.3273 13.5796 50.4617 13.4782C50.5961 13.3767 50.6875 13.2302 50.7183 13.0668L50.7777 12.875L49.3203 8.92041H50.1857L51.1951 12.05H51.258L52.2639 8.92041H53.1066L51.6056 13.0233C51.2615 13.982 50.8808 14.2896 50.06 14.2896C49.9936 14.2896 49.805 14.2823 49.7308 14.2717Z" fill="white"/>
<path d="M53.7227 11.7425H54.5138C54.5915 12.0898 54.9242 12.271 55.3896 12.271C55.9188 12.271 56.2436 12.0428 56.2436 11.6882C56.2436 11.3084 55.952 11.1272 55.3896 11.1272H54.7871V10.5231H55.3791C55.8594 10.5231 56.1039 10.3424 56.1039 10.013C56.1039 9.72374 55.8673 9.50286 55.3791 9.50286C54.9347 9.50286 54.6098 9.68744 54.5583 9.99847H53.7925C53.8498 9.64107 54.0481 9.31993 54.3448 9.10412C54.6415 8.88832 55.0129 8.79509 55.3791 8.84448C56.3362 8.84448 56.8837 9.26788 56.8837 9.93353C56.8882 10.1189 56.8275 10.3001 56.7118 10.447C56.596 10.5938 56.4323 10.6973 56.248 10.7402V10.8017C56.4675 10.8294 56.6689 10.935 56.8141 11.0984C56.9593 11.2618 57.0381 11.4717 57.0356 11.6882C57.0356 12.4372 56.3842 12.9328 55.3896 12.9328C54.5103 12.9328 53.796 12.5384 53.7227 11.7425Z" fill="white"/>
<path d="M58.1836 12.8605V8.92041H58.9712V11.6304H59.0341L60.8897 8.92042H61.6773V12.8605H60.8897V10.1359H60.8303L58.9712 12.8605L58.1836 12.8605Z" fill="white"/>
<path d="M66.015 9.57491H64.747V12.8604H63.9515V9.57491H62.6836V8.92041H66.015V9.57491Z" fill="white"/>
<path d="M70.2945 11.7966C70.1863 12.1567 69.9522 12.4681 69.6331 12.6764C69.3141 12.8848 68.9303 12.9768 68.549 12.9365C68.2837 12.9433 68.0201 12.8936 67.7764 12.7908C67.5328 12.6879 67.3149 12.5344 67.1379 12.3409C66.961 12.1474 66.8292 11.9186 66.7516 11.6702C66.6741 11.4219 66.6528 11.16 66.689 10.9028C66.6537 10.6448 66.6755 10.3823 66.7528 10.1332C66.8301 9.88413 66.9613 9.65421 67.1373 9.45902C67.3133 9.26384 67.5302 9.10794 67.7731 9.00188C68.0161 8.89582 68.2795 8.84208 68.5455 8.8443C69.6658 8.8443 70.3426 9.5933 70.3426 10.8306V11.1019H67.4994V11.1455C67.4868 11.2901 67.5053 11.4357 67.5536 11.5729C67.602 11.7101 67.6791 11.8359 67.7801 11.9422C67.8811 12.0485 68.0037 12.133 68.14 12.1902C68.2763 12.2473 68.4234 12.276 68.5717 12.2742C68.7616 12.2964 68.9541 12.2629 69.1245 12.1778C69.2949 12.0928 69.4356 11.9601 69.5287 11.7966L70.2945 11.7966ZM67.4994 10.5268H69.5322C69.5422 10.3946 69.5239 10.2619 69.4784 10.137C69.4329 10.0122 69.3613 9.89807 69.268 9.80195C69.1748 9.70583 69.062 9.62986 68.937 9.57892C68.8119 9.52797 68.6774 9.50317 68.542 9.50612C68.4045 9.50429 68.2681 9.52944 68.1407 9.58009C68.0133 9.63075 67.8976 9.70587 67.8004 9.80102C67.7032 9.89617 67.6265 10.0094 67.5748 10.1341C67.5231 10.2587 67.4974 10.3923 67.4994 10.5268Z" fill="white"/>
<path d="M73.6641 8.92041H75.4795C76.2671 8.92041 76.729 9.31091 76.729 9.92228C76.7303 10.1163 76.6634 10.3048 76.5395 10.4563C76.4157 10.6078 76.2425 10.7131 76.0488 10.7546V10.8161C76.284 10.8306 76.5044 10.933 76.6646 11.102C76.8249 11.2711 76.9126 11.4939 76.9098 11.7244C76.9098 12.4118 76.3815 12.8605 75.4978 12.8605H73.6641V8.92041ZM74.4517 9.51727V10.5375H75.2393C75.7196 10.5375 75.9493 10.3568 75.9493 10.0235C75.9493 9.71636 75.7493 9.51726 75.3275 9.51726L74.4517 9.51727ZM74.4517 11.1092V12.2636H75.3939C75.8637 12.2636 76.1152 12.0607 76.1152 11.6881C76.1152 11.2938 75.8305 11.1092 75.2944 11.1092L74.4517 11.1092Z" fill="white"/>
</g>
<defs>
<clipPath id="clip0_3471_1550">
<rect width="107" height="35" fill="white"/>
</clipPath>
</defs>
</svg>
