<svg width="193" height="193" viewBox="0 0 193 193" fill="none" xmlns="http://www.w3.org/2000/svg">
<path d="M100.596 79.6245C99.1206 80.6227 95.3753 83.4821 97.8495 85.1614C98.8936 85.8654 99.8918 86.5005 100.414 87.7036C100.709 88.3617 100.686 89.0657 100.891 89.7689C101.231 90.972 102.116 90.8359 103.137 90.972C104.59 91.176 105.112 92.7422 106.451 92.9012C105.884 91.562 105.293 90.2229 104.771 88.8838C103.523 85.7293 102.388 82.4839 100.596 79.6245Z" fill="#2A0042" stroke="#1C2027" stroke-width="0.395492" stroke-miterlimit="10"/>
<path d="M47.6699 69.0709C48.8955 68.3447 50.2344 67.7545 51.6189 67.7772C53.0714 67.7999 54.1153 68.5943 55.2048 69.4567C55.9764 70.0695 56.7707 70.6823 57.7693 70.8184C59.0856 71 59.6076 70.1602 60.2204 69.1617C60.9012 68.0496 61.8998 67.6638 63.1026 67.278C63.8969 67.0283 64.7594 66.7787 65.236 66.0297C65.6218 65.4169 65.7126 64.7134 66.2345 64.1914C67.3467 63.0793 69.0034 63.1247 70.4332 62.807C72.2488 62.4212 73.6105 61.1276 74.019 59.3801C71.0686 58.8353 68.0729 58.6538 65.0545 59.1531C58.3139 60.2879 52.1863 63.9872 47.6699 69.0709Z" fill="#2A0042" stroke="#1C2027" stroke-width="0.395492" stroke-miterlimit="10"/>
<path d="M61.3551 137.269C61.6502 137.292 61.9679 137.338 62.263 137.383C65.1452 137.837 67.9821 138.518 70.9098 138.768C73.7694 139.017 76.629 139.063 79.4888 138.972C81.191 138.904 82.8932 138.813 84.6176 138.7C85.0036 137.587 84.8897 136.316 84.2094 135.318C83.7554 134.614 82.7564 134.251 82.5753 133.389C82.3933 132.504 82.8244 131.573 82.6662 130.666C82.4392 129.235 81.4861 128.418 80.2379 127.851C78.5808 127.125 77.0602 126.535 76.3339 124.719C75.6077 122.836 76.0389 120.838 76.5382 118.954C70.3197 119.476 64.1012 119.726 57.9735 118.206C56.9749 117.956 55.9991 117.684 55.0459 117.366C55.0686 117.411 55.0686 117.479 55.0459 117.547C54.4331 119.681 53.7749 121.928 54.138 124.152C54.5012 126.444 55.7721 127.851 57.792 128.827C59.0629 129.44 60.4473 130.257 60.5835 131.846C60.6516 132.663 60.3565 133.479 60.3111 134.274C60.243 135.386 60.4927 136.452 61.3097 137.269C61.3551 137.247 61.3551 137.247 61.3551 137.269Z" fill="#F52341" stroke="#1C2027" stroke-width="0.395492" stroke-miterlimit="10"/>
<path d="M41.1568 63.4196C39.7951 64.1912 39.9539 66.4381 40.3171 67.7317C40.9298 69.9104 41.7695 72.0665 42.7682 74.1091C44.3568 71.3175 46.3086 68.753 48.6008 66.4835C46.8987 65.0082 43.3128 62.1941 41.1568 63.4196Z" fill="#DB797E" stroke="#F79899" stroke-width="0.395492" stroke-miterlimit="10"/>
<path d="M42.4273 74.7217C41.8145 73.4508 41.2472 72.1572 40.7705 70.8408C40.362 69.7061 39.8173 68.4806 39.6358 67.2777C39.4088 65.916 39.3861 63.9643 40.6571 63.0792C43.1308 61.3543 47.0571 64.4181 49.0089 66.1203C50.0983 65.0763 51.2784 64.1231 52.5494 63.238C50.8926 62.3756 49.1223 61.7174 47.3975 60.9912C45.1507 60.038 42.9039 59.1756 40.4074 59.3571C35.823 59.6748 36.5265 65.6437 37.0939 68.8664C37.7066 72.3387 38.9776 75.6522 40.4755 78.8296C41.0655 77.3771 41.7237 76.0154 42.4273 74.7217Z" fill="white"/>
<path d="M44.7647 136.657C45.0598 136.748 45.3321 136.816 45.6271 136.907C48.4641 137.701 51.1648 137.837 54.0925 137.497C56.294 137.247 58.4045 137.066 60.5606 137.202C59.7436 136.089 59.6528 134.705 59.8797 133.343C60.0159 132.549 60.1975 131.709 59.7663 130.983C59.4485 130.438 58.9039 130.053 58.3818 129.735C57.4967 129.213 56.4982 128.895 55.7039 128.237C52.4357 125.536 53.5251 120.839 54.5236 117.366C54.5464 117.298 54.5918 117.23 54.6372 117.207C53.3662 116.776 52.118 116.276 50.8925 115.709C49.8712 117.525 48.5548 119.09 46.2853 119.136C45.2414 119.158 44.0839 118.705 43.4031 117.888C42.5633 118.319 41.4966 118.931 40.4754 119.068C40.0441 120.884 39.2725 122.836 40.3392 124.583C41.0655 125.786 42.3136 126.602 43.2214 127.647C45.2187 129.962 44.9236 133.729 44.7874 136.589C44.7874 136.589 44.7874 136.612 44.7647 136.657Z" fill="#F52341" stroke="#1C2027" stroke-width="0.395492" stroke-miterlimit="10"/>
<path d="M136.568 27.7655C137.067 27.4252 137.657 27.1528 138.27 27.0393C138.565 26.9939 138.996 27.0847 139.246 26.9031C139.427 26.767 139.541 26.0861 139.632 25.9046C140.086 24.8152 140.721 23.7031 141.787 23.0903C142.605 22.6365 143.649 22.4549 144.534 22.818C145.079 23.0222 145.328 23.3854 145.692 23.7939C146.1 24.2478 146.395 24.6563 147.053 24.6336C147.348 24.6336 147.643 24.5655 147.915 24.5428C148.959 24.4294 149.64 24.6563 150.139 25.5868C150.502 26.2676 150.707 27.0847 150.866 27.8336C153.385 28.3556 155.745 29.1046 158.378 28.9911C161.329 28.855 164.8 28.2422 165.39 24.8606C165.89 22.0691 165.322 18.7783 163.484 16.5768C161.828 14.5797 159.309 13.1725 156.948 12.2194C152.228 10.2903 146.758 9.99522 141.992 11.9016C137.521 13.6946 133.844 17.5754 132.278 22.1371C130.803 26.4039 131.666 30.489 133.186 34.5061C133.663 32.0323 134.525 29.1954 136.568 27.7655Z" fill="#2A0042" stroke="#1C2027" stroke-width="0.395492" stroke-miterlimit="10"/>
<path d="M135.909 66.9827C135.954 67.55 135.909 68.1174 135.773 68.6622C135.432 69.9557 134.547 70.9998 134.116 72.248C133.413 74.2906 134.729 75.5161 136.476 76.1969C137.293 76.5147 138.178 76.787 138.746 77.4906C139.495 78.4665 138.95 79.2606 138.927 80.3728C138.905 81.7119 140.811 81.0308 141.47 81.8938C141.946 82.529 142.037 83.437 142.468 84.1173C142.718 84.5262 143.013 84.9344 143.308 85.2974C143.33 84.9802 143.353 84.6623 143.353 84.3221C143.489 79.8966 142.559 75.3799 140.131 71.6352C138.995 69.9103 137.543 68.3444 135.909 66.9827Z" fill="#2A0042" stroke="#1C2027" stroke-width="0.395492" stroke-miterlimit="10"/>
<path d="M103.955 124.832C104.295 125.944 105.226 126.353 106.088 126.989C108.38 128.714 109.038 131.641 109.469 134.342C110.445 133.978 111.398 133.57 112.352 133.116C111.694 131.165 110.967 129.236 109.991 127.42C108.425 124.424 106.202 121.905 103.523 120.09C103.75 120.748 103.796 121.474 103.796 122.177C103.773 123.062 103.682 123.993 103.955 124.832Z" fill="#F52341" stroke="#1C2027" stroke-width="0.395492" stroke-miterlimit="10"/>
<path d="M90.7684 66.3018C91.0856 66.2791 91.4036 66.2337 91.6536 66.5287C92.1756 67.1415 91.1995 67.0735 92.5608 67.3231C92.9017 67.3912 93.1509 67.3912 93.3558 67.6862C93.6049 68.0266 93.4459 68.4125 93.4459 68.7983C93.4689 69.9557 94.0139 69.4792 94.6261 69.933C95.035 70.2281 95.194 70.75 95.5112 71.1586C95.7611 71.499 96.0791 71.7714 96.3512 72.0891C97.1454 70.2281 97.7133 68.2989 98.0305 66.3018C98.3034 64.5543 98.6435 62.3982 98.0985 60.6734C97.2363 57.8819 94.2179 59.9471 92.6747 60.9911C90.9955 62.1032 89.4973 63.4422 88.1582 64.9174C88.7934 66.0068 89.4293 66.3699 90.7684 66.3018Z" fill="#DB797E" stroke="#F79899" stroke-width="0.395492" stroke-miterlimit="10"/>
<path d="M151.342 104.089C151.319 104.112 151.274 104.134 151.228 104.157C151.183 104.18 151.138 104.203 151.092 104.225C150.321 104.589 149.549 104.907 148.755 105.224C150.139 105.701 151.206 106.586 152.25 107.721C153.157 108.719 154.247 108.901 155.45 109.377C155.995 109.581 156.381 109.876 156.653 110.398C157.402 111.851 157.629 113.712 158.673 114.938C159.104 115.46 159.489 116.14 159.694 116.844C160.715 113.803 160.079 110.33 159.058 107.335C158.559 105.86 157.833 104.112 156.698 102.977C156.063 102.341 155.178 101.865 154.384 101.434C153.68 102.614 152.477 103.408 151.342 104.089Z" fill="#F52341" stroke="#1C2027" stroke-width="0.395492" stroke-miterlimit="10"/>
<path d="M102.524 119.477C100.936 118.546 99.2106 117.843 97.3502 117.389C94.831 119.091 91.7445 120.725 88.7032 120.272C88.1131 120.181 87.614 119.931 87.2051 119.568C85.9118 121.111 83.4376 121.928 81.6223 120.839C81.1912 120.567 80.8503 120.249 80.6012 119.863C79.6022 119.749 78.8306 119.363 78.2406 118.773C77.8774 118.796 77.5143 118.841 77.1511 118.864C76.493 121.361 75.8122 124.742 78.4221 126.376C79.9882 127.352 81.9854 127.534 82.8705 129.372C83.2565 130.167 83.3696 131.074 83.2786 131.937C83.2106 132.663 83.2106 133.321 83.7097 133.956C83.9597 134.251 84.2998 134.455 84.5268 134.773C85.3668 135.908 85.5939 137.338 85.2079 138.654C89.1572 138.359 93.0829 137.928 96.9864 137.384C101.049 136.816 105.066 135.954 108.902 134.546C108.675 133.185 108.425 131.823 107.926 130.53C107.245 128.782 106.178 127.852 104.703 126.762C103.659 125.99 103.273 124.992 103.183 123.721C103.114 122.314 103.455 120.657 102.524 119.477Z" fill="#F52341" stroke="#1C2027" stroke-width="0.395492" stroke-miterlimit="10"/>
<path d="M105.543 87.7492C106.382 89.8366 107.2 91.9478 108.04 94.0352C108.857 96.1004 109.742 98.1436 110.218 100.299C110.309 100.663 110.059 101.026 109.674 101.026C108.494 101.026 107.336 100.935 106.178 100.753C106.564 101.479 106.905 102.228 107.154 103C107.291 103.386 106.95 103.681 106.609 103.726C106.178 103.771 105.747 103.726 105.384 103.567C105.429 103.862 105.497 104.18 105.611 104.475C105.769 104.929 105.293 105.247 104.907 105.179C104.34 105.065 103.75 104.974 103.183 104.861C103.16 104.861 103.137 104.838 103.114 104.838H103.092C97.4404 103.295 91.1545 102.705 85.5709 104.838C82.5296 105.996 80.3741 107.834 79.0803 110.83C78.4675 112.237 77.8547 113.826 77.9455 115.392C78.0136 116.753 78.8306 118.206 80.1693 118.614C79.9201 117.275 80.3283 115.732 81.0322 114.62C81.4182 114.008 82.3935 114.575 82.0083 115.188C81.1912 116.481 80.6233 118.841 82.2345 119.817C83.6417 120.679 85.6168 119.862 86.5019 118.637C85.6848 117.253 85.6619 115.278 86.615 114.03C87.0461 113.463 88.0451 114.03 87.5911 114.598C86.8191 115.596 86.842 116.912 87.4772 117.979C88.2943 119.363 89.8834 119.25 91.2676 118.955C93.4918 118.501 95.4661 117.298 97.3044 116.027C97.3273 116.005 97.3724 115.959 97.3953 115.936C100.641 113.644 104.68 113.531 108.494 113.099C116.096 112.237 123.609 111.215 130.984 109.082C137.565 107.176 144.374 106.042 150.638 103.136C152.159 102.206 154.156 100.98 153.77 98.8926C153.429 96.8954 151.16 96.2824 149.436 95.9644C146.984 95.5104 144.125 95.6013 141.787 95.9415C141.379 97.0085 140.948 98.0526 140.516 99.1188C140.244 99.7777 139.155 99.4827 139.427 98.8238C141.129 94.6711 142.74 90.5406 143.194 86.1151C142.808 85.6381 142.423 85.139 142.105 84.6169C141.492 83.6867 141.288 82.0977 139.995 81.9387C139.245 81.8485 138.678 81.8485 138.405 81.0085C138.019 79.6923 139.223 78.3077 137.679 77.3318C136 76.2651 133.367 76.0609 133.299 73.519C133.254 72.3161 133.889 71.2495 134.434 70.2282C135.115 69.0027 135.478 67.7998 135.251 66.4381C133.662 65.1898 131.938 64.1232 130.189 63.2608C126.218 61.3089 121.611 60.1061 117.186 60.265C112.397 60.4465 107.767 62.0125 103.478 64.1005C103.455 64.3728 103.409 64.6452 103.387 64.9175C102.819 69.1388 101.526 73.2012 100.323 77.2637C102.729 80.4184 104.113 84.1178 105.543 87.7492Z" fill="white"/>
<path d="M138.905 68.299C142.514 63.8054 144.67 58.1997 145.033 52.4351C145.215 49.5755 144.988 46.7159 144.284 43.9244C143.512 40.8832 142.173 37.9783 141.855 34.8463C141.651 32.8037 141.969 30.4434 143.535 28.9682C145.192 27.4023 147.62 27.2888 149.753 27.652C149.935 27.6747 150.094 27.72 150.275 27.7427C150.117 26.9938 149.912 26.1541 149.481 25.5867C148.642 24.52 147.189 25.5867 146.1 25.0647C145.669 24.8604 145.464 24.4746 145.192 24.0888C144.579 23.249 143.648 23.0448 142.672 23.3398C140.925 23.8845 140.244 25.8363 139.7 27.4023C139.654 27.5158 139.564 27.6293 139.427 27.6066C135.433 27.1299 134.094 32.4407 133.64 35.5499C133.844 36.0265 134.026 36.5031 134.253 36.9796C136.25 41.5641 138.157 46.1032 137.635 51.2096C137.181 55.6352 135.296 59.8338 132.256 63.0792C134.661 64.4636 136.976 66.2111 138.905 68.299Z" fill="white"/>
<path d="M159.262 117.91C159.262 117.184 158.944 116.39 158.581 115.823C158.309 115.391 157.855 115.074 157.628 114.62C157.333 114.053 157.265 113.349 156.97 112.759C156.653 112.124 156.471 111.443 156.176 110.807C155.699 109.808 154.474 109.763 153.543 109.377C152.907 109.105 152.431 108.764 151.954 108.288C150.683 106.972 149.594 105.996 147.87 105.587C145.486 106.495 143.058 107.221 140.562 107.834C140.494 107.857 140.448 107.857 140.38 107.879C143.466 110.307 146.485 112.873 149.004 115.913C150.502 117.729 151.773 119.681 152.794 121.769C154.134 121.429 155.427 120.997 156.675 120.362C157.492 119.954 158.309 119.545 158.876 118.909C158.831 118.773 158.854 118.637 158.922 118.478C159.081 118.296 159.171 118.092 159.262 117.91Z" fill="#F52341" stroke="#1C2027" stroke-width="0.395492" stroke-miterlimit="10"/>
<path d="M155.699 136.361C155.154 132.277 154.428 128.055 152.953 124.197C150.389 117.411 144.919 112.509 139.358 108.129C132.823 109.808 126.332 111.737 119.659 112.849C116.028 113.463 112.374 113.849 108.72 114.257C105.157 114.666 101.367 114.756 98.2803 116.753C103.977 118.342 108.425 122.359 111.058 127.669C112.351 130.303 113.259 133.094 114.099 135.908C115.074 139.108 115.982 142.353 116.596 145.644C117.481 150.319 117.549 154.995 117.345 159.738C117.072 166.002 116.437 172.266 115.596 178.485C115.914 178.394 116.232 178.303 116.527 178.144C116.618 178.099 116.732 178.076 116.823 178.099C120.045 176.963 123.494 176.895 126.831 176.192C130.484 175.397 133.935 173.968 137.339 172.47C140.584 171.04 143.92 169.679 147.052 167.999C149.753 166.569 152.113 164.572 154.768 163.074C155.722 158.376 156.266 153.61 156.38 148.822C156.471 144.668 156.244 140.492 155.699 136.361Z" fill="#1C2027" stroke="#1C2027" stroke-width="0.395492" stroke-miterlimit="10"/>
<path d="M30.5807 131.936C32.1466 133.979 35.0744 134.342 37.4346 134.728C39.7722 135.114 41.9736 135.795 44.2205 136.476C44.3113 134.501 44.3566 132.413 43.9709 130.439C43.6304 128.691 42.5184 127.647 41.2928 126.49C40.4077 125.627 39.5453 124.696 39.2956 123.448C39.0006 121.973 39.5453 120.476 39.8857 119.068C39.6814 119.046 39.4545 119.023 39.273 118.932C38.229 118.501 37.4573 118.047 37.0034 116.957C36.9807 116.912 36.9807 116.867 36.958 116.821C36.8899 116.821 36.7992 116.776 36.7311 116.73C34.7339 115.482 34.1438 113.485 34.4162 111.443C30.7622 112.737 28.0161 115.755 27.3353 119.636C26.5863 123.993 28.2884 128.237 30.558 131.846C30.558 131.914 30.5807 131.936 30.5807 131.936Z" fill="#F52341" stroke="#1C2027" stroke-width="0.395492" stroke-miterlimit="10"/>
<path d="M36.6631 115.301C36.6404 114.597 36.7539 113.871 36.8447 113.191C36.9582 112.464 38.0475 112.782 37.934 113.486C37.6844 115.165 37.7071 117.842 39.9993 117.956C40.8844 118.001 42.0419 117.298 42.8589 116.867C42.6093 116.027 42.7454 115.119 42.9496 114.257C43.1085 113.554 44.2206 113.849 44.039 114.552C43.7894 115.619 43.6532 116.776 44.6972 117.457C45.6504 118.115 46.8759 118.047 47.8745 117.525C48.7823 117.048 49.3724 116.072 49.8717 115.165C46.9667 113.735 44.2206 111.965 41.7242 109.876C40.9525 109.99 40.1809 109.99 39.8177 109.559C39.5454 109.218 39.6362 108.764 39.8631 108.311C38.8191 108.606 37.7752 108.719 36.6631 108.651C35.3695 110.761 34.8021 113.599 36.6631 115.301Z" fill="white"/>
<path d="M164.165 134.228C163.733 132.481 163.756 130.779 163.665 129.009C163.552 127.193 163.03 125.219 162.167 123.607C161.373 122.132 160.692 120.589 159.92 119.114C159.875 119.182 159.807 119.25 159.739 119.273C159.24 119.908 158.559 120.362 157.765 120.771C156.312 121.542 154.814 122.11 153.203 122.518C153.611 123.426 153.974 124.356 154.292 125.332C155.563 129.282 156.267 133.48 156.744 137.588C157.719 145.894 157.356 154.337 155.767 162.553C155.79 162.53 155.813 162.53 155.836 162.507C155.904 162.485 155.949 162.462 156.017 162.462C157.56 161.826 159.081 161.01 160.465 160.079C161.441 159.42 162.507 158.603 163.098 157.559C163.983 155.948 164.119 153.974 164.369 152.181C164.664 150.092 164.959 148.005 165.277 145.917C165.572 143.943 166.026 141.9 165.89 139.88C165.708 137.906 164.641 136.158 164.165 134.228Z" fill="#DDDDDD" stroke="#1C2027" stroke-width="0.395492" stroke-miterlimit="10"/>
<path d="M115.529 144.623C114.894 141.559 114.009 138.564 113.101 135.567C112.942 135.023 112.761 134.478 112.579 133.956C107.109 136.498 101.254 137.747 95.2853 138.473C89.1797 139.222 82.9839 139.857 76.8338 139.88C73.8607 139.88 70.8877 139.721 67.9373 139.29C64.8734 138.836 61.8776 137.928 58.7684 137.951C55.7727 137.974 52.8223 138.745 49.8265 138.564C47.1031 138.382 44.5158 137.452 41.9059 136.657C39.5229 135.93 37.0718 135.658 34.6434 135.091C32.9185 134.682 31.2618 134.047 30.1044 132.731C30.0363 132.731 29.9909 132.731 29.9229 132.731C29.6278 134.501 29.3554 136.271 29.0831 138.042C28.8107 139.676 29.4462 141.718 28.4023 143.125C28.0391 143.624 27.5625 143.987 27.6306 144.691C27.676 145.191 28.2207 145.667 28.5384 146.03C28.9696 146.552 29.3328 147.097 29.4689 147.755C29.7866 149.412 28.5384 151.023 29.1058 152.634C29.4008 153.52 30.0363 154.223 30.2405 155.131C30.4448 156.016 30.2632 156.901 30.1725 157.786C29.9909 159.806 30.5356 161.736 31.4434 163.528C32.2831 165.23 33.3725 166.796 34.4391 168.339C35.5513 169.951 36.6406 171.608 37.798 173.196C38.9782 174.807 40.3399 176.101 42.1782 176.941C43.8577 177.713 45.696 178.099 47.4889 178.484C49.1911 178.802 50.9159 179.12 52.618 179.415C55.0464 179.846 57.4748 180.277 59.9259 180.618C61.923 180.89 63.9429 180.958 65.9401 181.026C67.7784 181.094 69.6394 180.822 71.455 180.935C73.0664 181.049 74.3827 182.093 75.9941 182.161C77.5827 182.229 79.2165 182.002 80.8056 181.888C84.187 181.616 87.5685 181.298 90.9499 181.094C90.9958 181.094 91.018 181.094 91.0409 181.094C91.0638 181.094 91.0868 181.094 91.1089 181.094C91.54 181.094 91.9719 181.094 92.403 181.117C92.6521 180.754 92.312 180.005 92.562 179.596C92.7202 179.324 93.0152 179.301 93.2422 179.143C93.9232 178.711 93.6053 178.485 93.5151 177.872C93.4471 177.441 93.5831 177.032 93.7192 176.623C93.9913 175.851 94.3543 175.216 94.1052 174.376C93.8782 173.673 93.3332 173.083 92.9701 172.47C92.38 171.426 92.176 170.292 92.244 169.089C92.38 166.002 93.5372 163.12 94.2412 160.146C94.6723 158.308 94.0593 156.651 93.5602 154.904C93.0832 153.225 92.607 151.567 92.1301 149.888C92.0399 149.525 92.5841 149.389 92.6751 149.729C93.2201 151.613 93.7421 153.497 94.2863 155.381C94.6723 156.742 95.1485 158.104 94.9222 159.533C94.6952 161.145 94.0371 162.689 93.6511 164.254C93.2422 165.934 92.8111 167.704 92.7882 169.452C92.7882 170.405 92.9701 171.313 93.4471 172.152C93.7642 172.72 94.2183 173.242 94.4904 173.854C94.9903 174.944 94.6494 175.738 94.2412 176.782C93.9683 177.531 94.4002 178.053 94.4002 178.734C94.4002 179.029 94.3092 179.211 94.0822 179.392C93.4241 179.891 93.2881 179.301 93.0611 180.55C93.0152 180.799 93.0381 180.958 92.993 181.117C94.7174 181.23 96.4196 181.503 98.1218 181.639C100.346 181.82 102.547 181.639 104.704 181.049C106.633 180.527 108.38 179.415 110.332 179.006C111.739 178.711 113.237 178.802 114.667 178.575C114.985 176.214 115.257 173.877 115.506 171.517C116.505 162.689 117.413 153.475 115.529 144.623Z" fill="#DDDDDD" stroke="#1C2027" stroke-width="0.395492" stroke-miterlimit="10"/>
<path d="M41.5876 107.607C41.4741 107.811 40.9295 108.832 40.9295 108.832C41.1565 108.991 42.609 108.583 42.9267 108.515C43.6302 108.356 43.9479 109.445 43.2217 109.604C43.199 109.604 43.1536 109.627 43.1082 109.627C47.67 113.236 52.9806 115.845 58.6317 117.184C64.8502 118.659 71.1595 118.273 77.4461 117.729C76.8106 116.503 76.6517 114.915 76.9467 113.508C77.6503 110.171 79.4429 106.903 82.3933 105.111C88.5891 101.366 96.646 101.956 103.341 103.771C103.364 103.771 103.387 103.794 103.387 103.794C103.41 103.794 103.41 103.794 103.432 103.794C103.705 103.839 103.954 103.885 104.226 103.93C104.136 103.453 104.113 102.977 104.181 102.455C104.226 102.024 104.794 101.638 105.157 102.046C105.338 102.251 105.52 102.387 105.724 102.477C105.406 101.706 104.998 100.957 104.521 100.254C104.226 99.822 104.703 99.3229 105.157 99.4139C106.405 99.6638 107.653 99.822 108.924 99.845C108.379 97.6666 107.54 95.5333 106.655 93.4222C106.042 93.4451 105.475 93.2861 104.953 92.878C104.635 92.628 104.408 92.2879 104.136 92.015C103.432 91.3569 102.842 91.5159 102.003 91.4028C100.164 91.1758 100.459 89.4277 99.9824 88.0886C99.4833 86.7044 98.2802 86.2053 97.214 85.3652C96.646 84.912 96.1469 84.299 96.283 83.527C96.419 82.6648 97.259 81.8248 97.8262 81.1896C98.5523 80.3955 99.3923 79.6915 100.277 79.079C99.9824 78.6251 99.6644 78.1939 99.3243 77.7627C99.2563 77.6946 99.2333 77.6038 99.2104 77.513C99.1653 77.3995 99.1424 77.2633 99.1882 77.1272C100.254 73.496 101.39 69.8874 102.071 66.1654C102.706 62.625 102.797 59.0618 101.276 55.7257C101.004 55.1129 100.64 54.3866 100.05 54.0235C99.2104 53.5242 97.9401 53.8873 97.0771 54.0916C95.4437 54.4774 93.8776 55.0675 92.4024 55.8618C89.4742 57.4051 86.9327 59.5838 84.6634 61.9668C84.4815 62.1711 84.2545 62.1711 84.0504 62.0803C83.9824 62.0803 83.8914 62.0803 83.8004 62.0576C80.805 61.059 77.7184 60.0604 74.5864 59.4476C74.3368 60.5597 73.724 61.5583 72.8162 62.3073C71.4091 63.4193 69.7297 63.2604 68.0956 63.7598C67.5737 63.9186 67.0517 64.1455 66.6658 64.5314C66.2573 64.9399 66.1666 65.4619 65.9169 65.9384C65.6445 66.4605 65.3041 66.869 64.7821 67.164C63.375 67.981 61.6956 67.8676 60.7424 69.3882C59.9934 70.5683 59.3352 71.5215 57.7693 71.3399C56.2034 71.1357 55.182 69.9555 53.9339 69.1158C51.3693 67.3683 48.7593 68.9796 46.4898 70.4775C45.1962 72.1116 44.0841 73.8591 43.1309 75.6974C40.6344 80.5996 39.1592 85.9782 38.4557 91.425C37.911 95.6235 37.5479 100.004 35.46 103.748C35.7323 103.68 36.0046 103.612 36.277 103.521C37.0032 103.272 37.5932 102.795 38.2741 102.5C38.5238 102.387 38.7508 102.409 38.955 102.591C39.6132 103.158 39.2273 104.066 38.8869 104.725C38.3649 105.678 37.7067 106.586 37.0713 107.493C38.3649 107.516 39.6359 107.267 40.8387 106.745C41.3153 106.608 41.8827 107.062 41.5876 107.607ZM87.5228 64.8264C87.5228 64.7583 87.5458 64.7129 87.5908 64.6449C89.316 62.7157 91.3132 61.059 93.5145 59.7427C94.8758 58.9257 96.8501 57.859 98.0991 59.4703C99.3243 61.0363 98.8932 63.7598 98.6662 65.5527C98.3482 68.0491 97.645 70.4775 96.6239 72.7697C96.5551 72.9513 96.3739 72.9513 96.26 72.8605C96.2149 72.8378 96.1698 72.7924 96.124 72.747C95.7838 72.1796 95.2389 71.7939 94.8758 71.2718C94.5586 70.8179 94.2636 70.4775 93.6957 70.2506C93.5145 70.1825 93.4006 70.2506 93.2195 70.1598C92.9466 70.0009 92.8335 69.7286 92.7884 69.4109C92.7655 69.1838 92.8105 69.0023 92.8335 68.7981C92.9244 68.0945 92.6065 68.1172 91.9935 67.9811C91.6082 67.8903 91.4714 67.8903 91.2223 67.5952C91.1313 67.5044 91.2222 67.3002 91.1542 67.2094C90.7912 66.7328 90.3142 67.0959 89.8831 67.0506C88.8161 66.9371 87.999 65.9157 87.5228 65.0533C87.4999 64.9626 87.4999 64.8945 87.5228 64.8264ZM71.3183 96.6905C72.158 94.5573 74.6318 92.628 76.9921 92.651C79.3298 92.6731 80.8501 94.6704 81.2812 96.8036C81.3951 97.3486 80.578 97.5756 80.4649 97.0307C80.101 95.2604 78.9666 93.5361 76.9921 93.4902C75.0631 93.4451 72.8389 95.1473 72.1353 96.9175C71.9538 97.4167 71.1141 97.1896 71.3183 96.6905ZM60.4701 97.6888C60.4701 97.6666 60.4928 97.6666 60.5155 97.6437C60.9239 97.0085 62.0133 97.1896 63.0346 97.1896C63.897 97.1896 67.2786 96.7356 66.8247 98.5058C66.6204 99.3008 65.4857 99.777 64.8275 100.095C64.0105 100.503 63.4204 100.73 62.5353 100.412C61.5821 100.095 59.5169 98.8918 60.4701 97.6888ZM59.358 102.841C60.0842 104.293 61.968 104.271 62.6715 102.818C62.5807 102.5 62.5126 102.205 62.4672 101.887C62.3764 101.343 63.1934 101.116 63.2842 101.661C63.5112 103.022 63.9651 104.657 65.758 104.316C66.9382 104.089 67.9368 103.181 68.5722 102.205C68.8672 101.751 69.6162 102.182 69.2985 102.636C68.4134 103.975 66.8928 105.27 65.1907 105.202C64.1239 105.156 63.4658 104.566 63.0573 103.771C61.8771 105.224 59.5396 105.065 58.6317 103.249C58.3821 102.772 59.1083 102.341 59.358 102.841ZM46.6487 96.2816C47.7834 94.3302 49.0771 92.628 51.5055 92.492C54.0473 92.3559 55.6587 93.8992 56.0671 96.3726C56.1579 96.9175 55.3409 97.1446 55.2501 96.5996C55.0913 95.5555 54.6374 94.3302 53.7068 93.7172C52.9579 93.2411 51.9139 93.2632 51.0742 93.3771C49.2359 93.6492 48.2828 95.2154 47.4203 96.6905C47.1026 97.1896 46.3536 96.7586 46.6487 96.2816Z" fill="white"/>
<path d="M61.2418 98.6647C61.7184 99.1188 62.9212 99.7088 63.1255 99.7088C63.7155 99.7769 64.2603 99.4597 64.7596 99.1868C64.8957 99.1188 65.8943 98.6426 65.917 98.4607C65.9624 97.8485 63.6248 98.0525 63.2617 98.0525C62.8304 98.0525 62.422 98.0525 61.9907 98.0525C61.4006 98.0525 61.1056 97.8026 61.2418 98.5746C61.2418 98.5967 61.2418 98.6426 61.2418 98.6647Z" fill="#1C2027" stroke="#1C2027" stroke-width="0.395492" stroke-miterlimit="10"/>
<path d="M164.8 130.008C164.8 128.032 164.46 125.922 163.666 124.084C163.235 123.108 162.667 122.178 162.19 121.224C161.668 120.135 161.169 119.045 160.579 117.979C160.556 117.933 160.533 117.911 160.511 117.888C161.918 114.461 161.328 110.512 160.148 107.063C159.58 105.429 158.854 103.862 157.742 102.523C156.993 101.616 155.881 100.98 154.837 100.436C154.883 100.277 154.928 100.095 154.951 99.9359C155.269 97.5986 153.566 96.1004 151.569 95.3973C148.687 94.3761 145.305 94.3982 142.264 94.8072C143.376 91.7429 144.216 88.6343 144.442 85.3201C144.737 80.8265 143.989 76.1743 141.787 72.2026C141.197 71.136 140.471 70.1147 139.677 69.1615C142.922 65.1444 145.078 60.333 145.872 55.2493C146.258 52.7302 146.349 50.1883 146.099 47.6465C145.804 44.923 145.055 42.3812 144.216 39.7712C143.376 37.1613 142.332 34.0974 143.308 31.3966C144.488 28.1059 148.278 28.4009 151.024 29.0817C154.065 29.8534 156.925 30.4208 160.057 29.9896C162.44 29.6718 165.027 28.991 166.094 26.608C167.047 24.452 166.843 21.5697 166.23 19.3682C165.549 16.8944 163.893 15.0334 161.827 13.5809C157.629 10.6533 152.34 9.13267 147.212 9.56391C137.657 10.3809 129.282 18.937 130.485 28.8321C131.234 34.9825 135.228 40.0889 136.318 46.1486C137.384 52.0266 135.364 58.2451 131.234 62.4891C127.489 60.5373 123.041 59.2664 118.865 59.1302C113.554 58.9714 108.403 60.56 103.637 62.7841C103.795 59.7884 103.387 56.6111 101.685 54.1373C99.7787 51.3684 95.4212 53.2522 93.015 54.3642C89.6114 55.9302 86.6832 58.3359 84.0959 60.9912C78.7174 59.221 73.1571 57.4281 67.4152 57.7458C62.5357 58.0181 57.7243 59.8338 53.6392 62.4664C53.5938 62.4437 53.5711 62.3983 53.5257 62.3757C51.7555 61.4225 49.8491 60.6962 47.9881 59.9246C48.1016 59.97 47.8746 59.8792 47.693 59.8111C47.2618 59.6295 46.8306 59.4479 46.3994 59.2891C45.2646 58.8579 44.1072 58.4267 42.9044 58.2451C40.5895 57.9046 37.8433 58.1089 36.5497 60.333C35.0745 62.8749 35.5965 66.5515 36.0958 69.2976C36.7994 73.1104 38.2746 76.719 39.9767 80.1914C39.1143 82.5287 38.4334 84.9571 37.9568 87.4313C36.8447 93.014 37.1624 99.2098 33.9397 104.134C33.849 104.203 33.7809 104.293 33.7809 104.407C33.6674 104.702 33.8716 104.997 34.144 105.088C34.2348 105.133 34.371 105.156 34.4844 105.133C35.3015 104.997 36.1412 104.861 36.9355 104.566C37.3441 104.407 37.7299 104.18 38.1157 103.953C37.6164 105.043 35.8235 107.449 35.5965 107.789C35.4603 107.993 35.483 108.197 35.5965 108.356C35.2561 108.946 34.9838 109.559 34.7794 110.194C30.6035 111.42 27.2674 114.711 26.3823 119C25.4745 123.403 26.8816 127.738 29.083 131.528V131.551C28.7426 133.48 28.4929 135.431 28.1525 137.361C28.0163 138.155 27.9029 138.95 27.9029 139.766C27.9255 141.015 28.039 141.831 27.222 142.853C26.2234 144.078 26.5411 145.236 27.4943 146.416C28.2886 147.392 28.6291 148.118 28.3567 149.412C28.1752 150.297 27.8575 151.182 27.9255 152.112C27.9709 152.816 28.2886 153.452 28.6291 154.065C29.3554 155.381 29.2646 156.379 29.1283 157.809C28.9695 159.624 29.3554 161.418 30.0589 163.075C30.8759 164.981 32.0107 166.728 33.1908 168.43C34.3937 170.178 35.5511 171.948 36.7994 173.65C38.0022 175.307 39.3639 176.782 41.2022 177.713C43.1086 178.689 45.1965 179.165 47.2619 179.619C51.1881 180.368 55.1371 181.094 59.0861 181.662C62.5811 182.161 66.235 182.41 69.7528 182.184C70.6606 182.115 71.5684 182.025 72.4535 182.32C73.2478 182.592 73.9514 183 74.7684 183.205C76.2663 183.545 77.855 183.295 79.3531 183.205C83.2337 182.932 87.1142 182.524 90.9956 182.297C91.0185 182.297 91.0407 182.297 91.0636 182.297C91.0866 182.297 91.1316 182.297 91.1546 182.297C93.5829 182.229 95.9653 182.705 98.3945 182.887C100.641 183.046 102.888 182.842 105.066 182.252C107.109 181.684 108.97 180.482 111.081 180.164C112.941 179.869 114.78 180.028 116.55 179.392C116.619 179.392 116.687 179.392 116.777 179.347C120.227 178.053 123.972 178.053 127.535 177.213C130.985 176.419 134.298 175.057 137.52 173.65C140.789 172.221 144.102 170.836 147.257 169.202C150.389 167.568 153.067 165.23 156.199 163.619C157.629 163.029 159.013 162.326 160.329 161.531C161.418 160.85 162.508 160.078 163.348 159.102C164.347 157.945 164.778 156.493 165.027 155.018C165.776 150.796 166.389 146.462 166.865 142.195C167.092 140.13 166.82 138.382 166.071 136.452C165.277 134.365 164.8 132.254 164.8 130.008ZM154.383 101.479C155.201 101.911 156.063 102.364 156.698 103.022C157.833 104.157 158.536 105.883 159.058 107.38C160.079 110.399 160.692 113.849 159.694 116.89C159.489 116.186 159.104 115.483 158.673 114.983C157.629 113.758 157.402 111.896 156.653 110.444C156.381 109.922 155.995 109.627 155.45 109.423C154.247 108.946 153.157 108.765 152.25 107.766C151.206 106.632 150.117 105.746 148.755 105.27C149.549 104.952 150.321 104.634 151.092 104.271C151.138 104.248 151.183 104.248 151.228 104.202C151.274 104.18 151.319 104.157 151.342 104.134C152.477 103.408 153.679 102.614 154.383 101.479ZM158.922 118.909C158.355 119.545 157.515 119.953 156.721 120.362C155.473 120.997 154.179 121.429 152.84 121.769C151.818 119.681 150.548 117.729 149.05 115.914C146.531 112.872 143.512 110.308 140.426 107.88C140.494 107.857 140.539 107.857 140.607 107.834C143.081 107.199 145.532 106.473 147.915 105.588C149.64 105.996 150.752 106.972 152 108.288C152.477 108.765 152.976 109.105 153.589 109.377C154.519 109.763 155.745 109.809 156.222 110.807C156.517 111.442 156.698 112.123 157.016 112.759C157.311 113.349 157.379 114.053 157.674 114.62C157.901 115.074 158.355 115.392 158.627 115.823C158.99 116.413 159.308 117.185 159.308 117.911C159.217 118.115 159.126 118.296 159.013 118.478C158.877 118.637 158.877 118.773 158.922 118.909ZM140.108 71.6352C142.536 75.4027 143.467 79.8964 143.33 84.3219C143.33 84.6399 143.308 84.9571 143.285 85.298C142.99 84.912 142.718 84.526 142.446 84.1178C142.014 83.4368 141.946 82.5287 141.447 81.8936C140.789 81.0314 138.883 81.7117 138.905 80.3725C138.928 79.2833 139.495 78.4665 138.724 77.4907C138.156 76.7644 137.271 76.5147 136.454 76.197C134.706 75.5161 133.39 74.2906 134.094 72.248C134.525 70.9998 135.433 69.9558 135.75 68.6622C135.886 68.1175 135.932 67.5501 135.886 66.9828C137.543 68.3444 138.996 69.9104 140.108 71.6352ZM132.301 22.1824C133.867 17.6207 137.543 13.7398 142.014 11.9469C146.781 10.0178 152.25 10.3355 156.971 12.2646C159.353 13.2405 161.85 14.6249 163.507 16.6221C165.345 18.8236 165.89 22.1144 165.413 24.9058C164.823 28.2874 161.328 28.9002 158.4 29.0363C155.745 29.1499 153.384 28.4236 150.888 27.8789C150.729 27.1073 150.525 26.313 150.162 25.6321C149.663 24.6789 148.982 24.4747 147.938 24.5881C147.643 24.6108 147.371 24.6789 147.076 24.6789C146.417 24.6789 146.099 24.2931 145.713 23.8392C145.35 23.4079 145.101 23.0675 144.556 22.8633C143.671 22.5228 142.627 22.6817 141.81 23.1356C140.744 23.7257 140.108 24.8604 139.654 25.9499C139.564 26.1541 139.45 26.8123 139.269 26.9484C139.019 27.13 138.588 27.0392 138.292 27.0846C137.679 27.1981 137.089 27.4477 136.59 27.8109C134.525 29.218 133.663 32.0775 133.231 34.574C131.688 30.5342 130.826 26.4491 132.301 22.1824ZM137.611 51.2096C138.133 46.1032 136.227 41.5641 134.23 36.9797C134.026 36.5031 133.821 36.0265 133.617 35.5499C134.071 32.418 135.41 27.13 139.405 27.6066C139.541 27.6293 139.632 27.5158 139.677 27.4023C140.222 25.8363 140.902 23.8846 142.65 23.3399C143.648 23.0449 144.556 23.2491 145.169 24.0888C145.441 24.4747 145.645 24.8378 146.077 25.0647C147.144 25.5867 148.619 24.5201 149.458 25.5867C149.89 26.1541 150.094 26.9938 150.253 27.7428C150.071 27.7201 149.912 27.6747 149.731 27.652C147.598 27.2888 145.169 27.4023 143.512 28.9683C141.924 30.4435 141.606 32.8038 141.833 34.8464C142.15 37.9783 143.489 40.8833 144.261 43.9244C144.964 46.6932 145.191 49.5755 145.01 52.4351C144.647 58.1998 142.491 63.8055 138.883 68.2991C136.953 66.2112 134.638 64.4636 132.21 63.0792C135.274 59.8338 137.157 55.6351 137.611 51.2096ZM103.5 64.1232C107.79 62.0352 112.419 60.4692 117.209 60.2877C121.634 60.1288 126.241 61.3317 130.213 63.2834C131.961 64.1459 133.685 65.2125 135.274 66.4608C135.501 67.7998 135.138 69.0026 134.457 70.2509C133.889 71.2722 133.277 72.3388 133.322 73.5417C133.39 76.0835 136.023 76.3105 137.702 77.3545C139.223 78.3077 138.02 79.7144 138.429 81.0314C138.678 81.8707 139.269 81.8707 140.017 81.9616C141.311 82.1206 141.515 83.7089 142.128 84.6399C142.468 85.1619 142.831 85.661 143.217 86.1372C142.763 90.5857 141.152 94.7162 139.45 98.8467C139.178 99.5278 140.267 99.8228 140.539 99.1418C140.97 98.0755 141.402 97.0314 141.81 95.9644C144.147 95.6243 147.008 95.5333 149.458 95.9873C151.183 96.3053 153.452 96.9175 153.793 98.9148C154.156 101.003 152.182 102.251 150.661 103.159C144.397 106.064 137.589 107.199 131.008 109.105C123.654 111.238 116.119 112.259 108.516 113.122C104.703 113.554 100.664 113.667 97.4184 115.959C97.3725 115.982 97.3504 116.005 97.3274 116.05C95.4892 117.321 93.5149 118.523 91.2906 118.977C89.8835 119.272 88.3173 119.386 87.5002 118.001C86.8651 116.912 86.8421 115.619 87.6141 114.62C88.0682 114.053 87.0692 113.485 86.6381 114.053C85.6849 115.301 85.7079 117.275 86.5242 118.66C85.6391 119.908 83.6648 120.725 82.2576 119.84C80.6464 118.841 81.2135 116.481 82.0306 115.21C82.4166 114.598 81.4405 114.03 81.0553 114.643C80.3513 115.755 79.9432 117.298 80.1923 118.637C78.8535 118.228 78.0365 116.776 77.9684 115.415C77.9004 113.849 78.4905 112.282 79.1032 110.852C80.3972 107.834 82.5526 106.019 85.594 104.861C91.1767 102.727 97.4635 103.317 103.115 104.861H103.137C103.16 104.861 103.183 104.884 103.205 104.884C103.773 104.997 104.363 105.088 104.93 105.202C105.316 105.27 105.793 104.952 105.634 104.498C105.52 104.18 105.452 103.885 105.407 103.59C105.793 103.749 106.201 103.794 106.633 103.749C106.973 103.703 107.314 103.408 107.178 103.022C106.905 102.228 106.587 101.479 106.201 100.776C107.359 100.957 108.516 101.048 109.696 101.048C110.082 101.048 110.332 100.685 110.241 100.322C109.764 98.1436 108.879 96.1004 108.063 94.0581C107.223 91.9699 106.406 89.8596 105.566 87.7714C104.113 84.14 102.752 80.4413 100.369 77.309C101.572 73.2239 102.865 69.1842 103.432 64.9629C103.432 64.6679 103.478 64.3955 103.5 64.1232ZM103.205 123.744C103.273 125.014 103.682 126.013 104.726 126.784C106.201 127.874 107.268 128.782 107.949 130.552C108.448 131.846 108.698 133.207 108.925 134.569C105.089 135.976 101.072 136.838 97.0094 137.406C93.1059 137.951 89.1795 138.382 85.2309 138.677C85.6169 137.361 85.3899 135.93 84.5499 134.796C84.3229 134.478 83.9598 134.274 83.7328 133.979C83.2337 133.344 83.2337 132.685 83.3017 131.959C83.3927 131.097 83.2788 130.189 82.8936 129.395C82.0084 127.556 80.0112 127.374 78.4451 126.399C75.8351 124.765 76.5159 121.383 77.1741 118.886C77.5373 118.864 77.9004 118.818 78.2635 118.796C78.8535 119.386 79.6482 119.771 80.6234 119.885C80.8734 120.271 81.1914 120.589 81.6454 120.861C83.4607 121.951 85.9341 121.133 87.2281 119.59C87.6363 119.953 88.1362 120.203 88.7263 120.293C91.7668 120.747 94.854 119.113 97.3725 117.411C99.2337 117.865 100.959 118.569 102.547 119.499C103.455 120.657 103.115 122.314 103.205 123.744ZM103.5 120.089C106.201 121.905 108.403 124.424 109.969 127.42C110.922 129.236 111.671 131.165 112.329 133.117C111.376 133.57 110.423 133.979 109.447 134.342C109.016 131.642 108.358 128.714 106.065 126.989C105.202 126.353 104.295 125.945 103.932 124.833C103.659 123.971 103.75 123.063 103.75 122.178C103.773 121.474 103.727 120.747 103.5 120.089ZM43.2221 127.624C42.3143 126.557 41.066 125.763 40.3398 124.561C39.2731 122.813 40.0448 120.861 40.476 119.045C41.4746 118.909 42.5639 118.319 43.4036 117.865C44.1072 118.66 45.2419 119.113 46.286 119.113C48.5555 119.091 49.8718 117.502 50.893 115.687C52.1186 116.254 53.3668 116.753 54.6378 117.185C54.5924 117.207 54.547 117.275 54.5243 117.343C53.5257 120.816 52.4363 125.514 55.7044 128.214C56.5215 128.872 57.4974 129.19 58.3825 129.713C58.9044 130.03 59.4718 130.416 59.7669 130.961C60.1981 131.71 59.9939 132.527 59.8804 133.321C59.6534 134.682 59.7669 136.067 60.5612 137.179C58.4052 137.043 56.2945 137.224 54.0931 137.474C51.1654 137.815 48.4646 137.678 45.6278 136.884C45.3327 136.793 45.0604 136.725 44.7654 136.634C44.7654 136.611 44.7881 136.589 44.7881 136.543C44.9469 133.707 45.2192 129.962 43.2221 127.624ZM60.3343 134.229C60.3796 133.412 60.6748 132.617 60.6066 131.8C60.4704 130.235 59.0861 129.417 57.8151 128.782C55.7725 127.806 54.5243 126.399 54.1612 124.107C53.7981 121.86 54.4562 119.635 55.069 117.502C55.0917 117.434 55.0917 117.389 55.069 117.321C56.0222 117.638 56.9981 117.933 57.9967 118.16C64.1244 119.681 70.3429 119.431 76.5613 118.909C76.0621 120.793 75.6308 122.791 76.3571 124.674C77.0606 126.489 78.5812 127.079 80.2604 127.806C81.5315 128.373 82.4625 129.213 82.6887 130.62C82.8477 131.551 82.4166 132.459 82.5985 133.344C82.7575 134.206 83.7787 134.569 84.2327 135.272C84.8908 136.271 85.0268 137.542 84.6408 138.655C82.9386 138.768 81.2135 138.859 79.5121 138.927C76.6521 139.018 73.7699 138.995 70.9329 138.723C68.0053 138.45 65.191 137.792 62.2861 137.338C61.9683 137.293 61.6733 137.247 61.3782 137.224C61.3782 137.202 61.3555 137.202 61.3555 137.179C60.5385 136.407 60.2889 135.363 60.3343 134.229ZM106.451 92.878C105.112 92.719 104.59 91.1307 103.137 90.9488C102.139 90.8127 101.231 90.9488 100.891 89.7457C100.687 89.0425 100.709 88.3615 100.414 87.6804C99.8696 86.4781 98.8706 85.8422 97.8495 85.139C95.3753 83.4597 99.1206 80.5995 100.596 79.6013C102.388 82.4607 103.546 85.7291 104.771 88.8606C105.293 90.1997 105.883 91.5388 106.451 92.878ZM65.0549 59.1756C68.0734 58.6763 71.0691 58.8579 74.0195 59.4025C73.611 61.1501 72.2493 62.421 70.4337 62.8295C69.0038 63.1473 67.3471 63.0792 66.2351 64.2139C65.7131 64.7587 65.6223 65.4395 65.2364 66.0522C64.7599 66.8012 63.8748 67.0282 63.1031 67.3005C61.9002 67.6863 60.9017 68.0721 60.2208 69.1842C59.608 70.1828 59.1088 70.9998 57.7697 70.8409C56.7485 70.7047 55.9768 70.092 55.2052 69.4793C54.1158 68.6168 53.0718 67.8452 51.6193 67.7998C50.2122 67.7771 48.8959 68.3671 47.6703 69.0934C52.1867 63.987 58.3144 60.2877 65.0549 59.1756ZM42.7682 74.109C41.7696 72.0665 40.9299 69.9104 40.3171 67.7317C39.954 66.4381 39.7724 64.1912 41.1568 63.4196C43.3129 62.1941 46.8987 65.0083 48.6009 66.5062C46.3087 68.753 44.3568 71.3175 42.7682 74.109ZM37.1171 68.8211C36.5497 65.5984 35.8462 59.6295 40.4305 59.3118C42.9271 59.1529 45.1512 59.9927 47.4207 60.9458C49.1455 61.6721 50.893 62.353 52.5725 63.1927C51.3016 64.0778 50.1441 65.031 49.0321 66.0749C47.0803 64.3728 43.1313 61.3089 40.6803 63.0338C39.4093 63.9189 39.432 65.8707 39.6589 67.2324C39.8632 68.4352 40.3852 69.6608 40.7937 70.7955C41.2703 72.1346 41.8377 73.4282 42.4505 74.6764C41.7242 75.9928 41.0887 77.3317 40.5214 78.7389C39.0008 75.5842 37.7525 72.2934 37.1171 68.8211ZM38.8419 104.793C39.2051 104.134 39.5681 103.227 38.91 102.659C38.7057 102.478 38.4788 102.455 38.2292 102.569C37.5256 102.864 36.9582 103.34 36.232 103.59C35.9596 103.681 35.6873 103.749 35.4149 103.817C37.5029 100.072 37.866 95.6923 38.4107 91.4938C39.1143 86.047 40.5895 80.6684 43.086 75.7658C44.0164 73.9275 45.1512 72.18 46.4448 70.5459C48.7144 69.048 51.3243 67.4366 53.8888 69.1842C55.1144 70.0239 56.1584 71.2041 57.7243 71.4083C59.2903 71.6125 59.9485 70.6367 60.6974 69.4566C61.6506 67.9587 63.3301 68.0494 64.7372 67.2324C65.2591 66.9374 65.5996 66.5515 65.8719 66.0068C66.1215 65.5076 66.2123 65.0083 66.6209 64.5998C67.0067 64.2139 67.5286 63.987 68.0507 63.8282C69.6847 63.3288 71.3869 63.4877 72.7713 62.3757C73.7018 61.6494 74.2918 60.6281 74.5415 59.516C77.6734 60.1515 80.7603 61.1501 83.7557 62.126C83.8467 62.1487 83.9377 62.1714 84.0057 62.1487C84.1868 62.2395 84.4138 62.2168 84.6179 62.0352C86.9102 59.6522 89.4295 57.4962 92.3569 55.9302C93.8321 55.1359 95.3982 54.5458 97.0324 54.16C97.8946 53.9557 99.1657 53.5926 100.006 54.0919C100.618 54.455 100.959 55.1813 101.231 55.7941C102.752 59.1302 102.661 62.6933 102.025 66.2339C101.367 69.9558 100.21 73.5644 99.1427 77.1956C99.0976 77.3544 99.1206 77.4907 99.1657 77.5814C99.1886 77.6722 99.2115 77.7403 99.2796 77.8311C99.6197 78.2623 99.9377 78.6935 100.233 79.1473C99.3476 79.7603 98.5076 80.4413 97.7815 81.2584C97.2143 81.8936 96.3743 82.7107 96.2382 83.5958C96.1243 84.367 96.6242 84.98 97.1684 85.434C98.2355 86.2741 99.4378 86.7732 99.9377 88.1574C100.414 89.4965 100.119 91.2438 101.957 91.4708C102.797 91.5847 103.387 91.4257 104.09 92.0838C104.385 92.3559 104.59 92.6961 104.907 92.946C105.429 93.3549 105.997 93.5131 106.61 93.491C107.495 95.6013 108.312 97.7346 108.879 99.9138C107.609 99.8679 106.36 99.7318 105.112 99.4819C104.658 99.3917 104.181 99.8679 104.476 100.322C104.953 101.026 105.339 101.774 105.679 102.546C105.475 102.455 105.293 102.319 105.112 102.115C104.748 101.706 104.181 102.069 104.136 102.523C104.09 103.045 104.09 103.522 104.181 103.998C103.909 103.953 103.659 103.907 103.387 103.862C103.364 103.862 103.364 103.862 103.342 103.862C103.319 103.862 103.319 103.839 103.296 103.839C96.6013 102.001 88.5443 101.411 82.3486 105.179C79.3982 106.972 77.5827 110.24 76.9018 113.576C76.6067 114.983 76.743 116.572 77.401 117.797C71.1145 118.342 64.8053 118.728 58.5868 117.253C52.9357 115.914 47.6022 113.326 43.0633 109.695C43.1086 109.695 43.1313 109.672 43.1767 109.672C43.8803 109.514 43.5852 108.424 42.8816 108.583C42.5412 108.651 41.1114 109.06 40.8845 108.901C40.8845 108.901 41.4292 107.88 41.5427 107.675C41.815 107.131 41.2703 106.677 40.771 106.904C39.5454 107.449 38.2973 107.675 37.0036 107.653C37.6845 106.677 38.32 105.769 38.8419 104.793ZM36.6405 108.697C37.7299 108.742 38.7965 108.629 39.8405 108.334C39.6362 108.787 39.5227 109.264 39.7952 109.582C40.1582 110.013 40.9299 110.013 41.7015 109.899C44.198 111.964 46.9441 113.758 49.8491 115.188C49.3498 116.073 48.7597 117.071 47.852 117.548C46.8306 118.07 45.6278 118.138 44.6746 117.48C43.6533 116.776 43.7668 115.641 44.0164 114.575C44.1753 113.871 43.086 113.554 42.9271 114.28C42.7228 115.12 42.5866 116.05 42.8362 116.89C42.0192 117.321 40.8618 118.024 39.9767 117.979C37.7072 117.843 37.6618 115.165 37.9114 113.508C38.0249 112.804 36.9355 112.486 36.8221 113.213C36.7086 113.917 36.6178 114.62 36.6405 115.324C34.8021 113.599 35.3695 110.762 36.6405 108.697ZM27.3354 119.681C28.0163 115.8 30.7624 112.759 34.4164 111.488C34.1213 113.508 34.7114 115.528 36.7313 116.776C36.7994 116.821 36.8901 116.844 36.9582 116.867C36.9809 116.912 36.9809 116.958 37.0036 117.003C37.4575 118.092 38.2292 118.546 39.2731 118.977C39.4774 119.045 39.6816 119.091 39.8859 119.113C39.5454 120.543 39.0008 122.042 39.2958 123.494C39.5454 124.742 40.3852 125.673 41.293 126.535C42.5185 127.692 43.6306 128.759 43.9711 130.484C44.3568 132.436 44.3341 134.524 44.2207 136.521C41.9738 135.862 39.7498 135.159 37.4349 134.773C35.0745 134.387 32.1468 134.024 30.5809 131.982C30.5809 131.959 30.5582 131.959 30.5582 131.937C28.2659 128.282 26.5865 124.039 27.3354 119.681ZM114.712 178.666C113.282 178.893 111.807 178.802 110.377 179.097C108.426 179.506 106.678 180.595 104.748 181.14C102.593 181.73 100.392 181.911 98.1674 181.73C96.4423 181.594 94.7401 181.321 93.0379 181.208C93.0838 181.049 93.0609 180.89 93.1059 180.64C93.3559 179.392 93.4919 179.982 94.1271 179.483C94.3541 179.302 94.4451 179.12 94.4451 178.825C94.4451 178.144 94.014 177.622 94.2861 176.873C94.6721 175.829 95.0352 175.034 94.536 173.945C94.2639 173.332 93.8099 172.833 93.4919 172.243C93.015 171.404 92.8338 170.496 92.8338 169.542C92.8338 167.795 93.2649 166.025 93.696 164.345C94.082 162.78 94.7401 161.236 94.9671 159.624C95.1712 158.195 94.7172 156.833 94.332 155.472C93.787 153.588 93.2649 151.704 92.7199 149.82C92.6298 149.48 92.0618 149.616 92.1758 149.979C92.6519 151.658 93.1289 153.315 93.6051 154.995C94.105 156.742 94.7172 158.422 94.2861 160.237C93.5829 163.211 92.4249 166.093 92.2889 169.179C92.2438 170.36 92.4249 171.517 93.015 172.561C93.3788 173.196 93.946 173.764 94.15 174.467C94.4 175.307 94.0369 175.942 93.764 176.714C93.6051 177.122 93.4919 177.531 93.56 177.963C93.6509 178.553 93.9689 178.78 93.2879 179.234C93.0379 179.392 92.7658 179.415 92.6068 179.687C92.3569 180.096 92.7199 180.845 92.4478 181.208C92.0168 181.185 91.5857 181.185 91.1546 181.185C91.1316 181.185 91.1087 181.185 91.0866 181.185C91.0636 181.185 91.0185 181.185 90.9956 181.185C87.6141 181.367 84.2327 181.707 80.8504 181.979C79.2621 182.115 77.6281 182.32 76.0394 182.252C74.4053 182.184 73.1117 181.14 71.5003 181.026C69.6847 180.913 67.8237 181.162 65.9854 181.117C63.9655 181.049 61.9683 180.981 59.9712 180.709C57.5201 180.368 55.0917 179.937 52.6633 179.506C50.9612 179.211 49.2363 178.893 47.5342 178.575C45.7413 178.19 43.903 177.781 42.2235 177.032C40.3852 176.214 39.0235 174.898 37.8433 173.287C36.6859 171.699 35.5965 170.042 34.4844 168.43C33.4178 166.864 32.3284 165.298 31.4886 163.619C30.6035 161.826 30.0362 159.897 30.2178 157.877C30.2859 156.992 30.4674 156.107 30.2859 155.222C30.0816 154.292 29.4461 153.588 29.151 152.725C28.6064 151.114 29.8319 149.48 29.5142 147.846C29.3781 147.165 29.0149 146.643 28.5837 146.121C28.2659 145.735 27.7213 145.281 27.6759 144.782C27.6078 144.078 28.0844 143.715 28.4475 143.216C29.4915 141.809 28.856 139.766 29.1283 138.133C29.4234 136.362 29.6731 134.592 29.9681 132.822C30.0362 132.822 30.0816 132.822 30.1497 132.822C31.3298 134.138 32.9865 134.796 34.6887 135.182C37.1171 135.749 39.5454 136.021 41.9511 136.748C44.5384 137.542 47.1257 138.473 49.8718 138.655C52.8676 138.836 55.818 138.064 58.8137 138.042C61.9229 138.019 64.9414 138.927 67.9826 139.381C70.9329 139.812 73.906 139.993 76.8791 139.971C83.0296 139.948 89.2254 139.313 95.3302 138.564C101.299 137.837 107.155 136.589 112.624 134.047C112.805 134.592 112.964 135.136 113.146 135.658C114.054 138.655 114.939 141.65 115.575 144.714C117.435 153.565 116.55 162.78 115.597 171.699C115.325 173.968 115.053 176.328 114.712 178.666ZM147.053 168.021C143.921 169.701 140.585 171.063 137.339 172.493C133.935 173.991 130.463 175.42 126.831 176.214C123.495 176.941 120.068 177.009 116.823 178.122C116.732 178.122 116.641 178.121 116.528 178.167C116.233 178.303 115.915 178.417 115.597 178.507C116.437 172.289 117.072 166.025 117.345 159.76C117.549 155.018 117.481 150.342 116.596 145.667C115.983 142.376 115.075 139.131 114.099 135.93C113.259 133.139 112.351 130.325 111.058 127.692C108.448 122.382 104 118.365 98.2806 116.776C101.367 114.756 105.157 114.666 108.721 114.28C112.374 113.871 116.029 113.485 119.659 112.872C126.309 111.76 132.823 109.831 139.359 108.152C144.919 112.532 150.412 117.411 152.953 124.22C154.406 128.101 155.155 132.3 155.7 136.384C156.244 140.515 156.471 144.691 156.381 148.867C156.267 153.656 155.723 158.422 154.769 163.12C152.113 164.595 149.753 166.569 147.053 168.021ZM165.232 145.94C164.937 148.027 164.642 150.115 164.324 152.203C164.074 153.974 163.938 155.971 163.053 157.582C162.463 158.649 161.418 159.443 160.42 160.101C159.036 161.032 157.515 161.826 155.972 162.485C155.904 162.485 155.859 162.507 155.791 162.53C155.768 162.553 155.745 162.553 155.723 162.575C157.311 154.36 157.674 145.917 156.698 137.61C156.222 133.502 155.518 129.304 154.247 125.355C153.929 124.402 153.589 123.471 153.157 122.541C154.747 122.132 156.244 121.565 157.719 120.793C158.514 120.384 159.194 119.93 159.694 119.295C159.762 119.272 159.83 119.204 159.875 119.136C160.647 120.611 161.328 122.155 162.122 123.63C162.985 125.241 163.507 127.193 163.62 129.031C163.734 130.825 163.689 132.504 164.12 134.251C164.596 136.157 165.663 137.928 165.799 139.925C165.98 141.9 165.504 143.965 165.232 145.94Z" fill="#1C2027"/>
<path d="M72.1359 96.8947C72.8395 95.1245 75.0636 93.4452 76.9927 93.4681C78.9672 93.5132 80.1022 95.2384 80.4653 97.0086C80.5784 97.5528 81.3955 97.3266 81.2824 96.7816C80.8513 94.6483 79.3302 92.6511 76.9927 92.6281C74.6324 92.606 72.1586 94.5344 71.3189 96.6677C71.1147 97.1897 71.9544 97.4167 72.1359 96.8947Z" fill="#1C2027"/>
<path d="M47.3756 96.7134C48.238 95.2383 49.2138 93.6721 51.0294 93.4C51.8692 93.2861 52.9359 93.264 53.6621 93.7401C54.5926 94.3532 55.0465 95.5555 55.2054 96.6225C55.2962 97.1675 56.1132 96.9405 56.0224 96.3955C55.6139 93.9221 54.0025 92.3789 51.4607 92.5149C49.055 92.651 47.7613 94.3532 46.6039 96.3045C46.3543 96.7585 47.1032 97.1896 47.3756 96.7134Z" fill="#1C2027"/>
<path d="M62.5353 100.435C63.3978 100.753 64.0105 100.526 64.8275 100.118C65.4857 99.7999 66.6205 99.3008 66.8247 98.5288C67.2786 96.7586 63.897 97.2126 63.0346 97.2126C62.0133 97.2126 60.9012 97.0307 60.5154 97.6666C60.4927 97.6888 60.4927 97.6888 60.47 97.7117C59.5169 98.8918 61.5821 100.095 62.5353 100.435ZM61.9679 98.0526C62.3991 98.0526 62.8077 98.0526 63.2388 98.0526C63.602 98.0526 65.9169 97.8477 65.8942 98.4608C65.8715 98.6427 64.8956 99.1189 64.7367 99.1869C64.2375 99.459 63.6928 99.777 63.1027 99.7089C62.8984 99.686 61.6956 99.0959 61.219 98.6648C61.219 98.6427 61.219 98.5968 61.219 98.5739C61.0828 97.8027 61.4005 98.0526 61.9679 98.0526Z" fill="#1C2027" stroke="#1C2027" stroke-width="0.395492" stroke-miterlimit="10"/>
<path d="M63.0572 103.771C63.4656 104.566 64.1238 105.156 65.1905 105.202C66.8927 105.247 68.4133 103.976 69.2984 102.636C69.5934 102.183 68.8671 101.751 68.5721 102.205C67.9366 103.181 66.9381 104.089 65.7578 104.316C63.9876 104.657 63.5338 103.022 63.2841 101.661C63.1933 101.116 62.3763 101.343 62.4671 101.888C62.5124 102.205 62.5805 102.5 62.6713 102.818C61.9678 104.271 60.0841 104.294 59.3578 102.841C59.1082 102.341 58.3819 102.773 58.6315 103.272C59.5394 105.066 61.877 105.224 63.0572 103.771Z" fill="#1C2027"/>
<path d="M89.9056 67.0283C90.3375 67.0737 90.8136 66.7333 91.1767 67.1873C91.2447 67.2781 91.1538 67.4596 91.2447 67.5731C91.5176 67.8681 91.6307 67.8681 92.0167 67.9589C92.6289 68.0951 92.924 68.0724 92.8559 68.7759C92.8338 68.9802 92.7879 69.1844 92.8109 69.3886C92.8559 69.7064 92.9469 69.9788 93.2419 70.1376C93.4239 70.2284 93.537 70.1603 93.7189 70.2284C94.286 70.4554 94.5581 70.7958 94.8991 71.2497C95.2621 71.7717 95.8063 72.1802 96.1472 72.7248C96.1923 72.793 96.2382 72.8157 96.2833 72.8384C96.3964 72.9292 96.5783 72.9065 96.6463 72.7476C97.6675 70.4554 98.3715 68.027 98.6887 65.5305C98.9157 63.7375 99.3468 61.0142 98.1215 59.4482C96.8734 57.8595 94.8991 58.9261 93.537 59.7205C91.3127 61.0368 89.3384 62.6936 87.6133 64.6226C87.5682 64.668 87.5453 64.7361 87.5453 64.8043C87.5231 64.8724 87.5453 64.9404 87.5682 65.0085C88.0222 65.8936 88.8393 66.9149 89.9056 67.0283ZM92.6519 60.9688C94.1951 59.9248 97.1913 57.8595 98.0764 60.651C98.6206 62.3759 98.2805 64.5319 98.0084 66.2794C97.6904 68.2766 97.1233 70.2057 96.3284 72.0667C96.0563 71.749 95.7612 71.4767 95.4891 71.1362C95.1941 70.7504 95.0351 70.2057 94.604 69.9107C93.9681 69.4567 93.446 69.9334 93.4239 68.7759C93.4239 68.3901 93.5599 68.027 93.3329 67.6638C93.1288 67.3688 92.8789 67.3688 92.5388 67.3008C91.1767 67.051 92.1528 67.1191 91.6307 66.5064C91.3808 66.2113 91.0636 66.2794 90.7456 66.2794C89.4065 66.3475 88.7935 65.9844 88.1132 64.8724C89.4745 63.4198 90.9726 62.0808 92.6519 60.9688Z" fill="#1C2027"/>
</svg>
