<svg width="160" height="50" viewBox="0 0 160 50" fill="none" xmlns="http://www.w3.org/2000/svg">
<path fill-rule="evenodd" clip-rule="evenodd" d="M34.6796 25.1988C32.4641 41.4513 12.0859 31.5624 3.90242 37.3093C6.83032 39.7804 10.5439 39.8181 15.5555 39.8652C22.4457 39.9263 31.7175 39.498 34.7674 39.498C33.0887 47.6549 28.1015 49.7259 20.2206 49.9188C16.3167 50.0176 11.8809 50.0977 9.40199 49.707C1.38444 48.4409 -1.06036 39.5592 0.398709 32.9698C1.11604 29.0019 4.08298 26.625 8.64562 25.5377C13.2083 24.4505 28.936 25.1988 34.6796 25.1988Z" fill="#F52341"/>
<path fill-rule="evenodd" clip-rule="evenodd" d="M34.5424 12.0099C31.9122 29.4955 7.34221 15.2011 1.46201 27.0433C-0.782715 18.4534 1.51569 14.0149 8.53288 12.344C13.1247 11.2568 28.5842 12.0099 34.5424 12.0099Z" fill="#F52341"/>
<path fill-rule="evenodd" clip-rule="evenodd" d="M52.1797 29.6702H63.2765V26.1966H56.3861V23.0714H61.6173V19.5978H56.3861V16.5854H62.9544V13.1118H52.2187V29.6702H52.1797ZM58.6893 11.8128H61.7149V8.56982H58.6893V11.8128ZM53.673 11.8128H56.6984V8.56982H53.6827V11.8128H53.673ZM63.7107 22.5537C63.7107 26.931 65.9408 29.9621 70.4059 29.9621C74.3097 29.9621 76.7936 27.4628 76.7936 24.1727C76.7936 20.9768 74.7782 18.7082 71.4648 18.7082C70.1585 18.6781 68.8798 19.0726 67.8342 19.8284H67.7854C67.8586 18.1152 69.5372 17.475 71.1232 16.9573L75.7835 15.5453L74.6026 12.3258L70.601 13.6107C65.7749 15.211 63.7107 17.6869 63.7107 22.5537ZM67.8342 24.2292C67.8342 22.676 68.9371 21.7017 70.2351 21.7017C71.533 21.7017 72.636 22.676 72.636 24.2292C72.6569 24.5457 72.6103 24.8631 72.4991 25.1615C72.388 25.46 72.2145 25.7334 71.9895 25.9646C71.7645 26.196 71.4928 26.3804 71.191 26.5064C70.8892 26.6324 70.5639 26.6974 70.2351 26.6974C69.9063 26.6974 69.5809 26.6324 69.2791 26.5064C68.9773 26.3804 68.7056 26.196 68.4806 25.9646C68.2557 25.7334 68.0822 25.46 67.971 25.1615C67.8598 24.8631 67.8132 24.5457 67.8342 24.2292ZM77.9452 29.6702H81.9857L85.4016 24.4363C85.6499 24.0556 85.8747 23.6611 86.075 23.2549H86.1189C86.0749 23.7256 86.075 24.1963 86.075 24.4599V29.6702H89.9789V17.7433H85.9433L82.5274 23.0007C82.2749 23.3783 82.0515 23.7732 81.8588 24.1822H81.81C81.81 23.8809 81.8588 23.4197 81.8588 23.0007V17.7433H77.955V29.6702H77.9452ZM96.3373 26.4979C97.1344 24.8972 97.513 23.1325 97.4401 21.358V20.9156H99.5775V26.4979H96.3373ZM90.7157 26.4979V32.4378H94.561V29.6702H101.813V32.4378H105.511V26.4979H103.73V17.7433H93.5313V20.6145C93.5313 23.0243 93.0775 25.1565 92.2577 26.4979H90.7157ZM105.555 23.7397C105.555 27.4722 108.678 29.948 112.568 29.948C116.457 29.948 119.58 27.4722 119.58 23.7397C119.58 20.0073 116.457 17.4656 112.543 17.4656C108.63 17.4656 105.555 19.9884 105.555 23.7397ZM109.762 23.7397C109.762 21.937 111.055 20.798 112.568 20.798C114.08 20.798 115.378 21.937 115.378 23.7397C115.406 24.1119 115.354 24.4856 115.226 24.8375C115.097 25.1895 114.895 25.5121 114.631 25.7853C114.368 26.0586 114.049 26.2764 113.694 26.4254C113.34 26.5744 112.957 26.6512 112.57 26.6512C112.183 26.6512 111.8 26.5744 111.446 26.4254C111.091 26.2764 110.772 26.0586 110.509 25.7853C110.245 25.5121 110.043 25.1895 109.914 24.8375C109.786 24.4856 109.734 24.1119 109.762 23.7397ZM119.965 23.6973C119.965 26.8698 122.342 29.948 126.758 29.948C128.677 29.9634 130.542 29.3475 132.048 28.2018L130.51 25.3777C129.518 26.0923 128.33 26.5111 127.095 26.5826C126.429 26.6226 125.77 26.4287 125.241 26.0367C124.712 25.6449 124.348 25.0813 124.216 24.4504H132.024C132.08 24.0352 132.113 23.6173 132.121 23.1984C132.121 19.9037 130.056 17.4327 126.407 17.4327C122.42 17.4327 119.97 20.1625 119.97 23.6645L119.965 23.6973ZM124.308 22.1912C124.528 21.2499 125.104 20.4074 126.304 20.4074C126.54 20.4086 126.773 20.4568 126.989 20.5486C127.205 20.6406 127.399 20.7745 127.558 20.9418C127.718 21.1091 127.84 21.3065 127.918 21.5214C127.995 21.7363 128.025 21.9643 128.007 22.1912H124.308ZM127.334 16.3548H130.359V13.1118H127.334V16.3548ZM122.318 16.3548H125.343V13.1118H122.318V16.3548ZM132.736 22.5537C132.736 26.931 134.966 29.9621 139.435 29.9621C143.34 29.9621 145.824 27.4628 145.824 24.1727C145.824 20.9768 143.803 18.7082 140.489 18.7082C139.184 18.6857 137.908 19.085 136.864 19.8425H136.816C136.889 18.1293 138.567 17.4891 140.153 16.9714L144.813 15.5594L143.638 12.3399L139.611 13.6107C134.786 15.1969 132.736 17.6727 132.736 22.5537ZM136.864 24.2433C136.864 22.6901 137.972 21.7158 139.265 21.7158C140.559 21.7158 141.667 22.6901 141.667 24.2433C141.687 24.5599 141.641 24.8772 141.529 25.1756C141.418 25.4742 141.245 25.7475 141.019 25.9787C140.795 26.2101 140.523 26.3945 140.221 26.5205C139.919 26.6465 139.594 26.7115 139.265 26.7115C138.937 26.7115 138.611 26.6465 138.309 26.5205C138.007 26.3945 137.736 26.2101 137.511 25.9787C137.286 25.7475 137.112 25.4742 137.002 25.1756C136.89 24.8772 136.844 24.5599 136.864 24.2433ZM146.975 29.6843H151.011L154.427 24.4504C154.678 24.0717 154.904 23.6771 155.1 23.269H155.149C155.112 23.6696 155.095 24.0717 155.1 24.474V29.6702H159.004V17.7433H154.968L151.552 23.0007C151.297 23.3771 151.071 23.772 150.879 24.1822H150.83C150.855 23.8809 150.879 23.4197 150.879 23.0007V17.7433H146.975V29.6843Z" fill="white"/>
<path fill-rule="evenodd" clip-rule="evenodd" d="M65.1173 43.6546L65.6052 43.0239C65.9077 43.3011 66.2578 43.5256 66.6398 43.6876C67.0235 43.8539 67.4391 43.9403 67.8597 43.9418C68.3181 43.961 68.7683 43.8206 69.1284 43.5463C69.3903 43.3274 69.5598 43.0235 69.6047 42.6921C69.6497 42.3607 69.5671 42.0249 69.3724 41.7484C69.208 41.5281 68.9988 41.3423 68.7576 41.2024C68.4861 41.0449 68.2041 40.905 67.9134 40.7834C67.601 40.6517 67.2937 40.5151 66.9863 40.3692C66.6906 40.2375 66.4081 40.0799 66.142 39.8986C65.8856 39.724 65.6738 39.4954 65.5222 39.2302C65.3587 38.942 65.2763 38.6174 65.2832 38.2889C65.2724 37.9768 65.3375 37.6667 65.473 37.3831C65.6085 37.0996 65.8109 36.8505 66.0639 36.6556C66.619 36.2354 67.3107 36.0185 68.0159 36.0438C68.8653 36.0125 69.6938 36.3031 70.3241 36.8533L69.8995 37.5452C69.3691 37.0939 68.689 36.8401 67.9818 36.8298C67.5187 36.8151 67.0639 36.9492 66.6885 37.2111C66.5196 37.3278 66.3831 37.483 66.2913 37.6627C66.1993 37.8426 66.1547 38.0415 66.1615 38.2418C66.1576 38.5006 66.2416 38.7535 66.4006 38.9619C66.5704 39.1838 66.7887 39.367 67.0399 39.4985C67.2937 39.6303 67.5718 39.7621 67.8842 39.8892C68.1964 40.0163 68.5038 40.1528 68.8113 40.2987C69.1069 40.4307 69.3894 40.5883 69.6555 40.7693C69.91 40.9504 70.12 41.1834 70.2703 41.4518C70.435 41.7516 70.5173 42.087 70.5095 42.4261C70.5178 42.7356 70.4572 43.0433 70.3318 43.3283C70.2063 43.6133 70.019 43.869 69.7824 44.0783C69.2466 44.5361 68.5451 44.7713 67.8304 44.7324C67.3228 44.7421 66.8185 44.6513 66.3486 44.4659C65.8786 44.2806 65.453 44.0045 65.0977 43.6546H65.1173ZM73.1056 42.4026V38.5807H73.9643V42.186C73.94 42.638 74.0304 43.0889 74.2279 43.4993C74.3451 43.6673 74.5086 43.8004 74.7 43.8835C74.8915 43.9667 75.1031 43.9966 75.3112 43.97C75.6296 43.979 75.9458 43.917 76.2354 43.7888C76.5248 43.6606 76.7797 43.4698 76.9801 43.231C77.4055 42.7339 77.6307 42.1056 77.6145 41.4612V38.5807H78.4587V44.5865H77.6291V43.6452L77.678 43.1746H77.6535C77.4658 43.5979 77.1643 43.9651 76.7801 44.2383C76.3305 44.5797 75.7709 44.758 75.199 44.7419C74.9062 44.7659 74.6117 44.7269 74.3365 44.6276C74.0614 44.5283 73.8126 44.3711 73.6081 44.1676C73.2398 43.6546 73.0674 43.0341 73.1202 42.412L73.1056 42.4026ZM81.006 43.8569L81.455 43.2875C81.6981 43.5282 81.991 43.7171 82.3146 43.8419C82.6382 43.9668 82.9854 44.0249 83.3337 44.0123C83.6537 44.0246 83.9691 43.9353 84.2316 43.7581C84.3469 43.6771 84.4397 43.5698 84.5019 43.4458C84.564 43.3219 84.5935 43.185 84.5877 43.0474C84.5867 42.9244 84.5551 42.8034 84.4956 42.6944C84.4363 42.5856 84.3507 42.4919 84.2462 42.4215C83.9947 42.2363 83.7148 42.0902 83.4166 41.9884C83.0897 41.8754 82.7627 41.7484 82.4407 41.6118C82.122 41.4824 81.8383 41.2844 81.611 41.0329C81.3799 40.7713 81.2597 40.4351 81.2744 40.0916C81.2634 39.8541 81.3128 39.6175 81.4183 39.4025C81.5237 39.1876 81.6821 39.0009 81.8794 38.8584C82.3189 38.5531 82.851 38.3975 83.3922 38.4159C84.0966 38.3832 84.7858 38.6199 85.31 39.075L84.9098 39.701C84.7104 39.5198 84.4722 39.3833 84.212 39.3009C83.935 39.2047 83.6428 39.1553 83.3483 39.1549C83.0333 39.1431 82.722 39.2235 82.4553 39.3856C82.3381 39.4617 82.2436 39.566 82.181 39.6882C82.1186 39.8103 82.0904 39.9462 82.0991 40.0822C82.0996 40.2062 82.1304 40.3282 82.1888 40.4385C82.2473 40.549 82.332 40.6445 82.4357 40.7176C82.6899 40.9052 82.9731 41.0529 83.2751 41.1553C83.602 41.2683 83.9338 41.3954 84.2511 41.5319C84.5714 41.6584 84.8557 41.8569 85.0806 42.1109C85.3162 42.3703 85.4385 42.7076 85.4223 43.0522C85.4275 43.2859 85.3766 43.5177 85.2732 43.7293C85.1699 43.9407 85.0172 44.1263 84.8269 44.2711C84.3995 44.5982 83.864 44.7653 83.319 44.7419C82.8907 44.7589 82.4635 44.6889 82.065 44.5365C81.6666 44.3841 81.3057 44.1526 81.006 43.8569ZM88.0817 44.5865V36.2038H88.926V39.4985L88.8869 39.9692H88.9113C89.1042 39.55 89.4111 39.1889 89.7995 38.9243C90.2575 38.5853 90.8228 38.409 91.4 38.4254C91.6972 38.3982 91.9969 38.437 92.2761 38.539C92.5552 38.641 92.8064 38.8034 93.0103 39.0137C93.3718 39.5246 93.5438 40.1383 93.4984 40.7552V44.5772H92.659V40.9812C92.6832 40.5282 92.5892 40.0768 92.3857 39.668C92.267 39.5004 92.1024 39.3678 91.9103 39.2847C91.7184 39.2017 91.5063 39.1714 91.2975 39.1974C90.9822 39.1927 90.6694 39.2529 90.38 39.3739C90.0906 39.4948 89.8312 39.6737 89.6188 39.8986C89.1546 40.3825 88.9072 41.0237 88.9308 41.6825V44.5818L88.0817 44.5865ZM96.5092 37.2063V36.2038H97.4265V37.2204L96.5092 37.2063ZM96.5483 44.5865V38.5807H97.3876V44.5865H96.5483ZM103.336 42.2709C103.332 41.782 103.48 41.3032 103.761 40.8965C104.03 40.4906 104.442 40.1928 104.922 40.0586C104.537 39.9132 104.212 39.6508 103.995 39.311C103.778 38.9714 103.683 38.573 103.722 38.176C103.709 37.8828 103.766 37.5907 103.888 37.3222C104.011 37.0538 104.196 36.816 104.429 36.6274C104.967 36.2197 105.64 36.014 106.322 36.0485C106.652 36.0505 106.981 36.0949 107.298 36.1803L107.064 36.8581C106.83 36.8029 106.589 36.7761 106.347 36.778C105.892 36.7606 105.445 36.8971 105.083 37.164C104.922 37.2915 104.794 37.4537 104.709 37.6377C104.624 37.8216 104.585 38.022 104.595 38.2229C104.596 38.3822 104.619 38.5405 104.663 38.6937C104.723 38.8613 104.806 39.0198 104.912 39.1644C105.057 39.3543 105.26 39.4957 105.493 39.5691C105.806 39.6761 106.137 39.727 106.469 39.7197H108.333V38.5572H109.187V39.7386H110.378V40.4775H109.187V41.7108C109.247 42.5285 108.972 43.3366 108.421 43.9605C108.143 44.2241 107.811 44.4288 107.446 44.5616C107.082 44.6946 106.692 44.7527 106.303 44.7324C105.533 44.7612 104.779 44.5111 104.19 44.0312C103.926 43.815 103.715 43.5449 103.572 43.2405C103.43 42.936 103.359 42.6049 103.365 42.2709H103.336ZM104.229 42.2238C104.224 42.4559 104.271 42.6863 104.367 42.8992C104.463 43.1122 104.606 43.3024 104.785 43.457C105.189 43.798 105.713 43.9767 106.249 43.9559C107.603 43.9559 108.279 43.1996 108.279 41.6872V40.4775H106.445C105.848 40.4388 105.256 40.6056 104.776 40.9482C104.586 41.1059 104.436 41.303 104.337 41.5248C104.238 41.7467 104.193 41.9873 104.205 42.2285L104.229 42.2238ZM116.282 44.5772V36.2038H118.922C119.465 36.1793 120.008 36.2609 120.518 36.4439C120.935 36.6231 121.285 36.9224 121.519 37.3006C121.753 37.679 121.86 38.1179 121.826 38.5572C121.839 39.0842 121.678 39.6016 121.367 40.0351C121.084 40.4444 120.658 40.7417 120.167 40.8729C120.257 40.9757 120.336 41.0877 120.401 41.2071L122.299 44.5865H121.323L119.371 41.0518H117.175V44.5865L116.282 44.5772ZM117.136 40.3034H119.205C119.437 40.3141 119.668 40.2778 119.884 40.1967C120.1 40.1156 120.296 39.9915 120.459 39.8328C120.788 39.487 120.963 39.0308 120.947 38.562C120.954 38.2498 120.871 37.9419 120.708 37.6724C120.554 37.4159 120.322 37.2107 120.045 37.084C119.68 36.9612 119.294 36.9085 118.908 36.9286H117.17V40.3128L117.136 40.3034ZM124.139 41.546C124.131 41.1303 124.213 40.7178 124.381 40.335C124.55 39.9521 124.799 39.6078 125.115 39.3244C125.743 38.7469 126.577 38.4248 127.445 38.4248C128.312 38.4248 129.147 38.7469 129.775 39.3244C130.091 39.6078 130.341 39.9521 130.509 40.335C130.677 40.7178 130.759 41.1303 130.751 41.546C130.751 42.3874 130.405 43.1942 129.788 43.7892C129.171 44.3841 128.334 44.7183 127.462 44.7183C126.59 44.7183 125.753 44.3841 125.136 43.7892C124.519 43.1942 124.173 42.3874 124.173 41.546H124.139ZM125.007 41.546C124.998 41.8664 125.055 42.1855 125.174 42.4845C125.294 42.7836 125.475 43.0565 125.705 43.2875C126.162 43.7258 126.781 43.9718 127.425 43.9718C128.07 43.9718 128.688 43.7258 129.146 43.2875C129.378 43.0575 129.56 42.7849 129.68 42.4857C129.801 42.1864 129.859 41.8669 129.848 41.546C129.855 41.2311 129.797 40.918 129.676 40.6254C129.556 40.3327 129.375 40.0663 129.146 39.8421C128.688 39.4038 128.07 39.1578 127.425 39.1578C126.781 39.1578 126.162 39.4038 125.705 39.8421C125.477 40.0667 125.297 40.3332 125.177 40.6259C125.057 40.9186 125 41.2314 125.007 41.546ZM133.395 43.1557V36.2038H134.24V42.9862C134.24 43.5934 134.474 43.8947 134.943 43.8947C135.01 43.9006 135.076 43.9006 135.143 43.8947V44.6243C135.039 44.6339 134.934 44.6339 134.83 44.6243C134.715 44.6341 134.599 44.6341 134.484 44.6243C134.356 44.6036 134.231 44.5655 134.113 44.5112C133.979 44.4535 133.858 44.3702 133.757 44.2665C133.641 44.1395 133.554 43.9903 133.503 43.8287C133.426 43.6205 133.39 43.4003 133.395 43.1792V43.1557ZM137.549 43.1557V36.2038H138.392V42.9862C138.392 43.5934 138.627 43.8947 139.095 43.8947C139.162 43.9006 139.229 43.9006 139.295 43.8947V44.6243C139.194 44.6339 139.09 44.6339 138.989 44.6243C138.873 44.6341 138.757 44.6341 138.641 44.6243C138.512 44.6036 138.385 44.5656 138.266 44.5112C138.131 44.4535 138.01 44.3702 137.909 44.2665C137.796 44.1383 137.709 43.9895 137.656 43.8287C137.582 43.6198 137.545 43.4 137.549 43.1792V43.1557ZM141.16 43.8476L141.603 43.2781C141.848 43.5185 142.142 43.7071 142.466 43.8319C142.791 43.9566 143.138 44.0149 143.487 44.003C143.808 44.0152 144.123 43.926 144.385 43.7488C144.499 43.6665 144.59 43.559 144.652 43.4352C144.713 43.3114 144.743 43.1751 144.736 43.038C144.736 42.9147 144.705 42.7934 144.646 42.6842C144.586 42.5751 144.5 42.4817 144.395 42.412C144.144 42.2259 143.864 42.0798 143.565 41.9789C143.244 41.866 142.917 41.739 142.59 41.6025C142.27 41.4742 141.986 41.2759 141.76 41.0235C141.525 40.7636 141.403 40.4266 141.419 40.0822C141.409 39.8447 141.459 39.6085 141.564 39.3937C141.669 39.1789 141.827 38.9921 142.023 38.849C142.463 38.5437 142.995 38.3881 143.536 38.4066C144.24 38.3737 144.93 38.6106 145.454 39.0655L145.058 39.6726C144.861 39.4916 144.625 39.3549 144.366 39.2726C144.087 39.1759 143.794 39.1265 143.497 39.1267C143.183 39.1155 142.874 39.196 142.609 39.3574C142.5 39.4337 142.411 39.5339 142.35 39.6497C142.289 39.7654 142.257 39.8935 142.257 40.0233C142.257 40.1532 142.289 40.2812 142.35 40.397C142.411 40.5127 142.5 40.6129 142.609 40.6894C142.861 40.876 143.144 41.0236 143.444 41.1271C143.776 41.24 144.103 41.3671 144.419 41.5037C144.74 41.6302 145.025 41.8287 145.249 42.0825C145.485 42.3421 145.607 42.6794 145.59 43.0239C145.595 43.2575 145.543 43.4889 145.44 43.7003C145.336 43.9116 145.185 44.0973 144.995 44.2429C144.567 44.5706 144.03 44.7378 143.482 44.7137C143.058 44.7338 142.633 44.6681 142.237 44.5206C141.841 44.373 141.48 44.1469 141.179 43.8569L141.16 43.8476Z" fill="white"/>
<path fill-rule="evenodd" clip-rule="evenodd" d="M10.7903 9.41353C11.4311 9.41353 12.0657 9.29179 12.6577 9.05525C13.2497 8.81872 13.7878 8.47202 14.2408 8.03495C14.694 7.59789 15.0534 7.07902 15.2986 6.50797C15.5439 5.93692 15.6701 5.32487 15.6701 4.70677C15.6701 3.45845 15.156 2.26127 14.2408 1.37858C13.3257 0.49589 12.0845 0 10.7903 0C9.49607 0 8.25487 0.49589 7.33972 1.37858C6.42457 2.26127 5.91046 3.45845 5.91046 4.70677C5.90326 5.32679 6.02457 5.94197 6.26725 6.51614C6.50995 7.09032 6.86912 7.61195 7.32369 8.05042C7.77827 8.48886 8.31908 8.8353 8.91437 9.06938C9.50967 9.30346 10.1475 9.42047 10.7903 9.41353Z" fill="white"/>
<path fill-rule="evenodd" clip-rule="evenodd" d="M23.4231 9.41353C24.064 9.41353 24.6985 9.29179 25.2905 9.05525C25.8826 8.81872 26.4205 8.47202 26.8737 8.03495C27.3267 7.59789 27.6862 7.07902 27.9315 6.50797C28.1767 5.93692 28.3028 5.32487 28.3028 4.70677C28.3028 3.45845 27.7888 2.26127 26.8737 1.37858C25.9585 0.49589 24.7173 0 23.4231 0C22.1289 0 20.8876 0.49589 19.9726 1.37858C19.0574 2.26127 18.5433 3.45845 18.5433 4.70677C18.5361 5.32679 18.6574 5.94197 18.9 6.51614C19.1428 7.09032 19.5019 7.61195 19.9565 8.05042C20.4111 8.48886 20.9519 8.8353 21.5471 9.06938C22.1425 9.30346 22.7802 9.42047 23.4231 9.41353Z" fill="white"/>
</svg>
