<svg width="178" height="56" viewBox="0 0 178 56" fill="none" xmlns="http://www.w3.org/2000/svg">
<path fill-rule="evenodd" clip-rule="evenodd" d="M38.8242 28.2228C36.3439 46.4256 13.5303 35.3501 4.36881 41.7866C7.64663 44.5542 11.804 44.5964 17.4146 44.6492C25.1283 44.7176 35.5081 44.2379 38.9226 44.2379C37.0432 53.3736 31.4599 55.6931 22.6372 55.9092C18.2667 56.0199 13.3009 56.1096 10.5256 55.672C1.54989 54.254 -1.18709 44.3064 0.446359 36.9263C1.24943 32.4823 4.57095 29.8202 9.67888 28.6024C14.7869 27.3847 32.3942 28.2228 38.8242 28.2228Z" fill="#F52341"/>
<path fill-rule="evenodd" clip-rule="evenodd" d="M38.671 13.4515C35.7264 33.0353 8.22 17.0256 1.63704 30.2888C-0.875961 20.6682 1.69713 15.6971 9.55297 13.8258C14.6936 12.608 32.0006 13.4515 38.671 13.4515Z" fill="#F52341"/>
<path fill-rule="evenodd" clip-rule="evenodd" d="M58.4089 33.231H70.8319V29.3406H63.1181V25.8404H68.9744V21.95H63.1181V18.5761H70.4713V14.6857H58.4526V33.231H58.4089ZM65.6966 13.2307H69.0837V9.59863H65.6966V13.2307ZM60.0807 13.2307H63.4677V9.59863H60.0916V13.2307H60.0807ZM71.318 25.2605C71.318 30.1631 73.8147 33.558 78.8134 33.558C83.1837 33.558 85.9645 30.7588 85.9645 27.0739C85.9645 23.4944 83.7083 20.9536 79.9989 20.9536C78.5365 20.9199 77.1049 21.3618 75.9343 22.2082H75.8798C75.9617 20.2894 77.8409 19.5724 79.6164 18.9926L84.8337 17.4112L83.5116 13.8053L79.0319 15.2444C73.6289 17.0368 71.318 19.8097 71.318 25.2605ZM75.9343 27.1371C75.9343 25.3975 77.1691 24.3063 78.6222 24.3063C80.0753 24.3063 81.31 25.3975 81.31 27.1371C81.3334 27.4916 81.2813 27.847 81.1568 28.1813C81.0324 28.5156 80.8381 28.8218 80.5863 29.0808C80.3344 29.3399 80.0302 29.5464 79.6924 29.6875C79.3544 29.8287 78.9902 29.9015 78.6222 29.9015C78.2541 29.9015 77.8899 29.8287 77.5519 29.6875C77.2141 29.5464 76.9099 29.3399 76.658 29.0808C76.4062 28.8218 76.2119 28.5156 76.0875 28.1813C75.963 27.847 75.9109 27.4916 75.9343 27.1371ZM87.2538 33.231H91.7772L95.6013 27.369C95.8792 26.9427 96.1309 26.5009 96.3551 26.0459H96.4043C96.3551 26.573 96.3551 27.1003 96.3551 27.3955V33.231H100.726V19.8729H96.2077L92.3836 25.7612C92.1009 26.1841 91.8508 26.6263 91.635 27.0845H91.5805C91.5805 26.7471 91.635 26.2304 91.635 25.7612V19.8729H87.2647V33.231H87.2538ZM107.844 29.678C108.736 27.8853 109.16 25.9088 109.079 23.9214V23.4259H111.471V29.678H107.844ZM101.55 29.678V36.3307H105.855V33.231H113.974V36.3307H118.114V29.678H116.12V19.8729H104.703V23.0886C104.703 25.7876 104.195 28.1757 103.277 29.678H101.55ZM118.164 26.5888C118.164 30.7692 121.66 33.5422 126.014 33.5422C130.368 33.5422 133.864 30.7692 133.864 26.5888C133.864 22.4086 130.368 19.5619 125.987 19.5619C121.605 19.5619 118.164 22.3874 118.164 26.5888ZM122.873 26.5888C122.873 24.5698 124.32 23.2941 126.014 23.2941C127.707 23.2941 129.161 24.5698 129.161 26.5888C129.192 27.0057 129.134 27.4242 128.99 27.8184C128.846 28.2126 128.62 28.5739 128.325 28.8799C128.029 29.186 127.672 29.43 127.275 29.5969C126.878 29.7637 126.45 29.8498 126.017 29.8498C125.584 29.8498 125.155 29.7637 124.758 29.5969C124.361 29.43 124.004 29.186 123.709 28.8799C123.414 28.5739 123.187 28.2126 123.044 27.8184C122.9 27.4242 122.842 27.0057 122.873 26.5888ZM134.296 26.5414C134.296 30.0945 136.956 33.5422 141.9 33.5422C144.048 33.5594 146.137 32.8696 147.822 31.5864L146.101 28.4235C144.99 29.2238 143.661 29.6929 142.277 29.7729C141.532 29.8177 140.795 29.6006 140.202 29.1616C139.61 28.7227 139.202 28.0915 139.054 27.3849H147.795C147.858 26.9198 147.896 26.4517 147.904 25.9827C147.904 22.2926 145.593 19.525 141.507 19.525C137.044 19.525 134.301 22.5825 134.301 26.5046L134.296 26.5414ZM139.158 24.8545C139.404 23.8003 140.049 22.8567 141.392 22.8567C141.657 22.8581 141.917 22.912 142.159 23.0149C142.4 23.1179 142.617 23.2678 142.796 23.4552C142.975 23.6426 143.112 23.8636 143.199 24.1044C143.285 24.3451 143.319 24.6004 143.299 24.8545H139.158ZM142.545 18.3178H145.932V14.6857H142.545V18.3178ZM136.929 18.3178H140.316V14.6857H136.929V18.3178ZM148.593 25.2605C148.593 30.1631 151.09 33.558 156.093 33.558C160.464 33.558 163.245 30.7588 163.245 27.0739C163.245 23.4944 160.982 20.9536 157.273 20.9536C155.811 20.9283 154.383 21.3756 153.214 22.224H153.16C153.242 20.3052 155.121 19.5882 156.897 19.0084L162.114 17.427L160.797 13.8212L156.289 15.2444C150.887 17.021 148.593 19.7939 148.593 25.2605ZM153.214 27.1529C153.214 25.4133 154.455 24.3221 155.902 24.3221C157.35 24.3221 158.591 25.4133 158.591 27.1529C158.614 27.5074 158.562 27.8628 158.437 28.1971C158.312 28.5315 158.118 28.8376 157.866 29.0966C157.615 29.3557 157.31 29.5622 156.973 29.7033C156.634 29.8445 156.271 29.9173 155.902 29.9173C155.534 29.9173 155.17 29.8445 154.832 29.7033C154.494 29.5622 154.191 29.3557 153.938 29.0966C153.687 28.8376 153.492 28.5315 153.368 28.1971C153.243 27.8628 153.191 27.5074 153.214 27.1529ZM164.534 33.2468H169.052L172.876 27.3849C173.158 26.9608 173.41 26.5187 173.63 26.0617H173.684C173.643 26.5104 173.624 26.9608 173.63 27.4113V33.231H178V19.8729H173.482L169.658 25.7612C169.372 26.1827 169.119 26.6251 168.904 27.0845H168.849C168.877 26.7471 168.904 26.2304 168.904 25.7612V19.8729H164.534V33.2468Z" fill="#203842"/>
<path fill-rule="evenodd" clip-rule="evenodd" d="M72.8977 48.8929L73.4439 48.1865C73.7826 48.4969 74.1745 48.7484 74.6022 48.9298C75.0317 49.116 75.497 49.2129 75.9678 49.2145C76.4811 49.236 76.9851 49.0788 77.3882 48.7716C77.6814 48.5264 77.8712 48.1861 77.9214 47.8149C77.9718 47.4437 77.8793 47.0676 77.6614 46.7579C77.4774 46.5111 77.2431 46.303 76.973 46.1464C76.6691 45.9701 76.3534 45.8133 76.028 45.6772C75.6783 45.5296 75.3342 45.3767 74.9901 45.2133C74.659 45.0657 74.3428 44.8892 74.0449 44.6861C73.7579 44.4906 73.5207 44.2346 73.3511 43.9376C73.168 43.6148 73.0757 43.2512 73.0835 42.8833C73.0714 42.5338 73.1442 42.1864 73.2959 41.8688C73.4477 41.5512 73.6742 41.2723 73.9575 41.054C74.5789 40.5833 75.3533 40.3405 76.1427 40.3688C77.0936 40.3337 78.0212 40.6592 78.7268 41.2755L78.2514 42.0503C77.6577 41.5449 76.8962 41.2606 76.1045 41.2492C75.5861 41.2326 75.0769 41.3828 74.6567 41.6761C74.4677 41.8069 74.3148 41.9806 74.212 42.182C74.109 42.3835 74.0591 42.6062 74.0667 42.8305C74.0624 43.1204 74.1564 43.4037 74.3344 43.6371C74.5245 43.8855 74.7688 44.0908 75.0501 44.2381C75.3342 44.3856 75.6456 44.5332 75.9953 44.6757C76.3448 44.8179 76.6889 44.9708 77.0332 45.1342C77.3641 45.2821 77.6804 45.4586 77.9782 45.6614C78.2632 45.8641 78.4984 46.1251 78.6666 46.4258C78.8509 46.7615 78.9431 47.1371 78.9343 47.517C78.9437 47.8636 78.8758 48.2082 78.7354 48.5274C78.595 48.8466 78.3852 49.133 78.1204 49.3674C77.5206 49.8802 76.7352 50.1436 75.9351 50.1C75.3668 50.1108 74.8023 50.0092 74.2762 49.8015C73.75 49.594 73.2735 49.2848 72.8757 48.8929H72.8977ZM81.8407 47.4907V43.2101H82.8021V47.2481C82.7748 47.7542 82.876 48.2592 83.0971 48.719C83.2283 48.9071 83.4114 49.0561 83.6257 49.1492C83.84 49.2424 84.0769 49.2759 84.3099 49.2461C84.6664 49.2562 85.0204 49.1867 85.3445 49.0432C85.6685 48.8996 85.9539 48.6859 86.1783 48.4185C86.6545 47.8617 86.9066 47.158 86.8885 46.4363V43.2101H87.8336V49.9366H86.9049V48.8824L86.9596 48.3552H86.9321C86.722 48.8293 86.3845 49.2406 85.9544 49.5466C85.4511 49.929 84.8246 50.1286 84.1843 50.1107C83.8565 50.1375 83.5268 50.0939 83.2187 49.9826C82.9108 49.8714 82.6323 49.6953 82.4033 49.4674C81.991 48.8929 81.7979 48.1979 81.8571 47.5012L81.8407 47.4907ZM90.6853 49.1195L91.1879 48.4817C91.4601 48.7513 91.788 48.9628 92.1504 49.1027C92.5126 49.2425 92.9013 49.3076 93.2912 49.2935C93.6494 49.3073 94.0026 49.2073 94.2964 49.0088C94.4255 48.918 94.5294 48.7979 94.599 48.659C94.6685 48.5202 94.7016 48.3669 94.6951 48.2128C94.6939 48.075 94.6586 47.9395 94.592 47.8175C94.5255 47.6956 94.4298 47.5907 94.3128 47.5118C94.0313 47.3044 93.7179 47.1407 93.384 47.0268C93.018 46.9002 92.652 46.7579 92.2915 46.605C91.9347 46.46 91.617 46.2382 91.3627 45.9566C91.104 45.6635 90.9693 45.287 90.9858 44.9023C90.9735 44.6363 91.0287 44.3713 91.1469 44.1306C91.2649 43.8898 91.4422 43.6807 91.6631 43.5211C92.1551 43.1792 92.7509 43.0049 93.3567 43.0256C94.1453 42.9889 94.9169 43.2541 95.5038 43.7637L95.0557 44.4648C94.8325 44.2619 94.5657 44.109 94.2745 44.0167C93.9644 43.909 93.6372 43.8536 93.3076 43.8532C92.9549 43.84 92.6064 43.9301 92.3078 44.1116C92.1766 44.1968 92.0708 44.3136 92.0008 44.4505C91.9309 44.5873 91.8993 44.7395 91.909 44.8918C91.9096 45.0306 91.9441 45.1673 92.0095 45.2909C92.075 45.4146 92.1697 45.5215 92.2859 45.6035C92.5704 45.8136 92.8875 45.979 93.2256 46.0937C93.5916 46.2203 93.9631 46.3625 94.3182 46.5154C94.6769 46.6571 94.9951 46.8795 95.2469 47.1639C95.5106 47.4545 95.6476 47.8323 95.6294 48.2181C95.6353 48.48 95.5783 48.7395 95.4626 48.9765C95.3468 49.2133 95.1759 49.4211 94.9628 49.5834C94.4843 49.9497 93.8848 50.1368 93.2747 50.1107C92.7952 50.1296 92.317 50.0513 91.8709 49.8806C91.4248 49.7099 91.0208 49.4506 90.6853 49.1195ZM98.6066 49.9366V40.548H99.5518V44.2381L99.508 44.7652H99.5355C99.7514 44.2957 100.095 43.8913 100.53 43.5949C101.043 43.2153 101.675 43.0178 102.322 43.0362C102.654 43.0057 102.99 43.0491 103.302 43.1634C103.615 43.2776 103.896 43.4596 104.124 43.6951C104.529 44.2672 104.722 44.9546 104.671 45.6456V49.9261H103.731V45.8986C103.758 45.3913 103.653 44.8858 103.425 44.4279C103.292 44.2402 103.108 44.0916 102.893 43.9986C102.678 43.9057 102.441 43.8717 102.207 43.9008C101.854 43.8956 101.504 43.963 101.18 44.0985C100.856 44.2339 100.565 44.4342 100.327 44.6861C99.8078 45.2281 99.5309 45.9462 99.5573 46.6842V49.9313L98.6066 49.9366ZM108.041 41.6708V40.548H109.068V41.6866L108.041 41.6708ZM108.085 49.9366V43.2101H109.025V49.9366H108.085ZM115.684 47.3431C115.679 46.7955 115.845 46.2594 116.159 45.8038C116.461 45.3492 116.923 45.0157 117.46 44.8654C117.029 44.7025 116.664 44.4086 116.422 44.0281C116.179 43.6477 116.072 43.2015 116.116 42.7568C116.101 42.4284 116.165 42.1014 116.303 41.8006C116.44 41.4999 116.647 41.2336 116.908 41.0224C117.51 40.5658 118.263 40.3354 119.027 40.3741C119.397 40.3762 119.764 40.426 120.12 40.5217L119.858 41.2808C119.595 41.219 119.325 41.1889 119.055 41.1911C118.545 41.1715 118.045 41.3245 117.64 41.6234C117.459 41.7662 117.316 41.9479 117.221 42.154C117.126 42.3599 117.082 42.5844 117.094 42.8094C117.094 42.9878 117.12 43.1651 117.17 43.3367C117.236 43.5244 117.33 43.7019 117.449 43.8638C117.611 44.0765 117.838 44.2349 118.099 44.3171C118.449 44.437 118.82 44.494 119.191 44.4858H121.278V43.1838H122.234V44.5069H123.567V45.3346H122.234V46.7158C122.302 47.6317 121.994 48.5367 121.377 49.2355C121.065 49.5307 120.694 49.76 120.285 49.9088C119.877 50.0576 119.441 50.1227 119.006 50.1C118.143 50.1322 117.299 49.8521 116.64 49.3147C116.344 49.0725 116.108 48.77 115.949 48.4291C115.789 48.0881 115.71 47.7172 115.717 47.3431H115.684ZM116.684 47.2903C116.678 47.5503 116.731 47.8084 116.838 48.0468C116.946 48.2854 117.105 48.4984 117.307 48.6715C117.759 49.0535 118.345 49.2536 118.946 49.2303C120.461 49.2303 121.218 48.3833 121.218 46.6893V45.3346H119.164C118.496 45.2912 117.834 45.478 117.296 45.8617C117.083 46.0383 116.916 46.2591 116.805 46.5075C116.694 46.756 116.643 47.0255 116.657 47.2957L116.684 47.2903ZM130.178 49.9261V40.548H133.133C133.741 40.5205 134.349 40.6119 134.919 40.8169C135.387 41.0176 135.778 41.3528 136.04 41.7764C136.302 42.2002 136.422 42.6917 136.384 43.1838C136.398 43.774 136.218 44.3535 135.87 44.8391C135.553 45.2975 135.076 45.6305 134.526 45.7773C134.628 45.8925 134.716 46.0179 134.788 46.1517L136.913 49.9366H135.821L133.636 45.9777H131.177V49.9366L130.178 49.9261ZM131.134 45.1396H133.45C133.709 45.1515 133.968 45.1108 134.21 45.02C134.452 44.9292 134.671 44.7902 134.854 44.6124C135.222 44.2251 135.418 43.7142 135.4 43.1891C135.408 42.8395 135.315 42.4947 135.133 42.1928C134.96 41.9055 134.701 41.6757 134.39 41.5338C133.981 41.3963 133.549 41.3372 133.117 41.3598H131.172V45.15L131.134 45.1396ZM138.973 46.5313C138.964 46.0656 139.056 45.6036 139.245 45.1749C139.433 44.7461 139.713 44.3605 140.066 44.043C140.769 43.3962 141.703 43.0355 142.674 43.0355C143.645 43.0355 144.58 43.3962 145.283 44.043C145.636 44.3605 145.916 44.7461 146.104 45.1749C146.292 45.6036 146.384 46.0656 146.376 46.5313C146.376 47.4736 145.988 48.3772 145.297 49.0436C144.607 49.7099 143.669 50.0842 142.693 50.0842C141.717 50.0842 140.78 49.7099 140.09 49.0436C139.399 48.3772 139.011 47.4736 139.011 46.5313H138.973ZM139.945 46.5313C139.935 46.8901 139.998 47.2475 140.132 47.5824C140.267 47.9174 140.469 48.223 140.727 48.4817C141.238 48.9726 141.931 49.2481 142.652 49.2481C143.374 49.2481 144.066 48.9726 144.578 48.4817C144.838 48.2242 145.042 47.9188 145.177 47.5836C145.312 47.2485 145.376 46.8907 145.365 46.5313C145.372 46.1786 145.307 45.8279 145.173 45.5001C145.038 45.1723 144.835 44.874 144.578 44.6229C144.066 44.132 143.374 43.8565 142.652 43.8565C141.931 43.8565 141.238 44.132 140.727 44.6229C140.471 44.8744 140.27 45.1729 140.136 45.5007C140.002 45.8285 139.937 46.1789 139.945 46.5313ZM149.336 48.3341V40.548H150.282V48.1443C150.282 48.8243 150.543 49.1617 151.068 49.1617C151.143 49.1684 151.218 49.1684 151.292 49.1617V49.9789C151.176 49.9897 151.058 49.9897 150.942 49.9789C150.813 49.99 150.684 49.99 150.555 49.9789C150.411 49.9557 150.272 49.9131 150.14 49.8523C149.989 49.7876 149.854 49.6943 149.741 49.5782C149.611 49.4359 149.514 49.2688 149.456 49.0879C149.37 48.8546 149.33 48.608 149.336 48.3604V48.3341ZM153.986 48.3341V40.548H154.93V48.1443C154.93 48.8243 155.193 49.1617 155.717 49.1617C155.792 49.1684 155.866 49.1684 155.941 49.1617V49.9789C155.827 49.9897 155.711 49.9897 155.598 49.9789C155.469 49.99 155.338 49.99 155.209 49.9789C155.064 49.9557 154.922 49.9132 154.788 49.8523C154.637 49.7876 154.502 49.6943 154.389 49.5782C154.263 49.4346 154.165 49.2679 154.106 49.0879C154.023 48.8539 153.981 48.6077 153.986 48.3604V48.3341ZM158.028 49.109L158.525 48.4712C158.799 48.7404 159.128 48.9516 159.491 49.0915C159.854 49.2312 160.243 49.2964 160.634 49.283C160.993 49.2967 161.346 49.1968 161.639 48.9983C161.766 48.9062 161.868 48.7858 161.937 48.6471C162.006 48.5084 162.039 48.3558 162.032 48.2023C162.032 48.0642 161.998 47.9283 161.932 47.806C161.864 47.6838 161.768 47.5792 161.65 47.5012C161.369 47.2928 161.056 47.1291 160.721 47.0161C160.361 46.8897 159.995 46.7474 159.629 46.5945C159.271 46.4508 158.953 46.2287 158.7 45.9461C158.437 45.6549 158.301 45.2775 158.318 44.8918C158.307 44.6258 158.363 44.3612 158.48 44.1206C158.598 43.8801 158.775 43.6708 158.994 43.5106C159.487 43.1687 160.083 42.9944 160.688 43.0151C161.476 42.9783 162.249 43.2436 162.836 43.753L162.392 44.4331C162.171 44.2303 161.907 44.0772 161.617 43.985C161.306 43.8768 160.977 43.8214 160.645 43.8216C160.294 43.8091 159.948 43.8992 159.65 44.08C159.528 44.1655 159.429 44.2777 159.36 44.4073C159.293 44.537 159.257 44.6804 159.257 44.8258C159.257 44.9713 159.293 45.1147 159.36 45.2443C159.429 45.3739 159.528 45.4862 159.65 45.5718C159.933 45.7808 160.249 45.9462 160.585 46.062C160.957 46.1885 161.323 46.3309 161.677 46.4838C162.036 46.6255 162.355 46.8479 162.606 47.1321C162.87 47.4228 163.007 47.8007 162.988 48.1865C162.994 48.4481 162.935 48.7073 162.82 48.944C162.704 49.1807 162.535 49.3887 162.322 49.5518C161.843 49.9188 161.241 50.1061 160.628 50.079C160.153 50.1016 159.678 50.028 159.234 49.8628C158.79 49.6975 158.387 49.4443 158.05 49.1195L158.028 49.109Z" fill="#203842"/>
<path fill-rule="evenodd" clip-rule="evenodd" d="M12.0769 10.5431C12.7943 10.5431 13.5047 10.4068 14.1675 10.1419C14.8302 9.87695 15.4326 9.48864 15.9398 8.99913C16.4471 8.50962 16.8495 7.92849 17.124 7.28891C17.3986 6.64934 17.5399 5.96384 17.5399 5.27157C17.5399 3.87346 16.9644 2.53262 15.9398 1.544C14.9154 0.555396 13.5258 0 12.0769 0C10.628 0 9.23846 0.555396 8.21394 1.544C7.18942 2.53262 6.61386 3.87346 6.61386 5.27157C6.60581 5.966 6.74162 6.65499 7.0133 7.29807C7.285 7.94115 7.68709 8.52538 8.196 9.01645C8.7049 9.50751 9.31034 9.89552 9.97678 10.1577C10.6432 10.4199 11.3572 10.5509 12.0769 10.5431Z" fill="#203842"/>
<path fill-rule="evenodd" clip-rule="evenodd" d="M26.2211 10.5431C26.9386 10.5431 27.649 10.4068 28.3118 10.1419C28.9746 9.87695 29.5768 9.48864 30.0842 8.99913C30.5914 8.50962 30.9937 7.92849 31.2684 7.28891C31.5429 6.64934 31.6841 5.96384 31.6841 5.27157C31.6841 3.87346 31.1086 2.53262 30.0842 1.544C29.0596 0.555396 27.6701 0 26.2211 0C24.7723 0 23.3827 0.555396 22.3583 1.544C21.3337 2.53262 20.7581 3.87346 20.7581 5.27157C20.7501 5.966 20.8859 6.65499 21.1575 7.29807C21.4293 7.94115 21.8314 8.52538 22.3403 9.01645C22.8492 9.50751 23.4546 9.89552 24.121 10.1577C24.7876 10.4199 25.5015 10.5509 26.2211 10.5431Z" fill="#203842"/>
</svg>
