<svg width="22" height="30" viewBox="0 0 22 30" fill="none" xmlns="http://www.w3.org/2000/svg">
<path fill-rule="evenodd" clip-rule="evenodd" d="M21.4469 15.1194C20.1088 24.8708 7.80005 18.9375 2.85712 22.3857C4.62561 23.8683 6.86865 23.8909 9.89574 23.9192C14.0575 23.9558 19.6578 23.6989 21.5 23.6989C20.486 28.593 17.4737 29.8356 12.7135 29.9514C10.3555 30.0106 7.67626 30.0587 6.17893 29.8242C1.33622 29.0646 -0.140473 23.7356 0.740826 19.7819C1.17411 17.4012 2.96618 15.9751 5.72208 15.3227C8.47801 14.6704 17.9777 15.1194 21.4469 15.1194Z" fill="#F52341"/>
<path fill-rule="evenodd" clip-rule="evenodd" d="M21.3644 7.20611C19.7758 17.6974 4.93514 9.12082 1.38341 16.2261C0.0275697 11.0722 1.41584 8.40914 5.65432 7.40662C8.42787 6.75426 17.7656 7.20611 21.3644 7.20611Z" fill="#F52341"/>
<path fill-rule="evenodd" clip-rule="evenodd" d="M7.01578 5.6481C7.40285 5.6481 7.78613 5.57505 8.14373 5.43313C8.5013 5.29121 8.8263 5.08319 9.09995 4.82096C9.37367 4.55872 9.59078 4.2474 9.73887 3.90477C9.88704 3.56214 9.96326 3.19491 9.96326 2.82405C9.96326 2.07506 9.65274 1.35676 9.09995 0.827144C8.54723 0.297533 7.7975 0 7.01578 0C6.23406 0 5.48436 0.297533 4.93159 0.827144C4.37883 1.35676 4.0683 2.07506 4.0683 2.82405C4.06395 3.19606 4.13722 3.56517 4.28381 3.90967C4.4304 4.25418 4.64734 4.56716 4.92191 4.83023C5.19648 5.0933 5.52314 5.30116 5.8827 5.44161C6.24227 5.58206 6.6275 5.65227 7.01578 5.6481Z" fill="#203842"/>
<path fill-rule="evenodd" clip-rule="evenodd" d="M14.6471 5.6481C15.0342 5.6481 15.4175 5.57505 15.7751 5.43313C16.1327 5.29121 16.4576 5.08319 16.7313 4.82096C17.005 4.55872 17.2221 4.2474 17.3703 3.90477C17.5184 3.56214 17.5946 3.19491 17.5946 2.82405C17.5946 2.07506 17.2841 1.35676 16.7313 0.827144C16.1785 0.297533 15.4289 0 14.6471 0C13.8654 0 13.1157 0.297533 12.563 0.827144C12.0102 1.35676 11.6996 2.07506 11.6996 2.82405C11.6953 3.19606 11.7686 3.56517 11.9151 3.90967C12.0617 4.25418 12.2787 4.56716 12.5533 4.83023C12.8279 5.0933 13.1545 5.30116 13.514 5.44161C13.8736 5.58206 14.2588 5.65227 14.6471 5.6481Z" fill="#203842"/>
</svg>
