<svg width="302" height="302" viewBox="0 0 302 302" fill="none" xmlns="http://www.w3.org/2000/svg">
<path fill-rule="evenodd" clip-rule="evenodd" d="M204.123 58.0759C198.283 62.4906 184.101 73.1636 172.609 81.7937C161.117 90.4231 151.511 97.7844 151.262 98.1509C150.976 98.5749 148.226 98.4009 143.726 97.6741C123.677 94.4363 104.445 95.131 87.0935 99.719C80.209 101.539 78.6641 102.131 69.9923 106.277C63.2558 109.497 57.1202 114.879 54.3243 120.02L52.3759 123.603L52.2088 148.266C52.056 170.905 51.9436 172.998 50.8386 173.762C50.1768 174.22 49.3259 174.837 48.9477 175.132C48.5696 175.428 46.4115 177.034 44.1521 178.702C41.8927 180.37 38.9064 182.604 37.5157 183.668C36.1242 184.732 34.6602 185.603 34.2615 185.603C33.8621 185.603 33.536 185.874 33.536 186.206C33.536 186.538 31.8404 188.089 29.768 189.653C26.546 192.086 26 192.824 26 194.743C26 197.932 27.4311 199.579 30.2023 199.579C32.0637 199.579 34.3115 198.227 41.8173 192.591C46.9363 188.748 51.4832 185.603 51.9217 185.603C52.4437 185.603 52.7185 187.106 52.7185 189.965C52.7185 196.321 54.747 200.744 60.0325 205.908C65.8461 211.588 77.5413 217.523 86.8016 219.493C88.0259 219.753 89.0282 220.246 89.0282 220.588C89.0282 221.111 77.0028 229.449 76.2485 229.449C76.1094 229.449 74.1891 230.682 71.9811 232.189C69.7731 233.696 67.6445 234.93 67.2506 234.93C66.8566 234.93 66.4319 235.181 66.3058 235.488C66.1805 235.795 62.9229 238.118 59.0665 240.651C55.2101 243.183 51.734 245.855 51.3421 246.587C50.4179 248.315 51.1654 251.226 52.752 252.075C55.5602 253.578 57.969 252.753 66.1428 247.493C70.6287 244.606 78.1524 239.776 82.8624 236.759C87.5724 233.744 94.3945 229.35 98.022 226.998L104.618 222.719L112.791 223.096C134.717 224.106 159.78 218.472 172.612 209.647C176.9 206.698 181.589 201.776 183.445 198.277C185.165 195.034 185.28 194.196 185.615 182.539C185.946 171.023 186.059 170.18 187.364 169.522C188.132 169.135 190.497 167.663 192.618 166.249C194.741 164.836 196.678 163.68 196.923 163.68C197.169 163.68 197.783 163.295 198.288 162.824C199.155 162.014 205.519 157.895 231.889 141.072C259.508 123.453 263.396 120.918 263.611 120.392C263.737 120.086 264.112 119.835 264.445 119.835C265.256 119.835 273.348 114.701 274.858 113.228C276.267 111.854 276.399 108.353 275.105 106.649C274.606 105.991 273.305 105.286 272.215 105.083C270.149 104.698 267.454 106.306 239.898 124.38C234.517 127.908 229.967 130.796 229.785 130.796C229.604 130.796 227.649 132.029 225.441 133.536C223.233 135.044 221.078 136.277 220.654 136.277C220.228 136.277 219.875 136.508 219.867 136.791C219.86 137.073 218.293 138.229 216.384 139.36C214.476 140.49 212.549 141.751 212.102 142.163C211.654 142.575 210.573 143.294 209.699 143.761C208.826 144.229 203.441 147.669 197.735 151.406C192.027 155.142 187.012 158.2 186.59 158.2C185.473 158.2 184.942 151.54 184.93 137.375C184.92 124.874 184.619 122.868 182.038 118.051C180.246 114.706 174.092 109.519 167.6 105.879C164.326 104.043 161.648 102.337 161.648 102.087C161.648 101.837 162.627 101.054 163.823 100.347C165.02 99.6403 166.484 98.6695 167.078 98.1892C170.642 95.3036 174.771 92.4311 175.356 92.4311C175.729 92.4311 176.034 92.1748 176.034 91.8624C176.034 91.5494 177.498 90.2545 179.289 88.9858C181.079 87.717 182.697 86.503 182.885 86.2879C183.919 85.1102 196.514 75.9889 197.107 75.9889C197.494 75.9889 197.963 75.593 198.148 75.1086C198.334 74.6242 199.832 73.315 201.476 72.199C203.12 71.083 204.62 69.9951 204.808 69.7813C204.997 69.5683 208.388 66.9663 212.344 63.9999C216.301 61.0334 219.764 58.2787 220.041 57.8779C220.318 57.4772 220.549 56.1693 220.555 54.9725C220.566 52.648 217.976 49.9124 215.848 50.0022C215.24 50.0275 209.963 53.6605 204.123 58.0759ZM144.882 108.066C158.01 111.384 165.468 114.693 170.963 119.638C181.233 128.881 172.818 140.478 151.029 147.11C138.331 150.975 133.27 151.652 117.459 151.604C101.486 151.556 94.6534 150.64 83.89 147.103C62.4296 140.051 55.9384 129.523 67.0204 119.744C73.8178 113.746 87.2421 108.693 102.387 106.432C106.519 105.815 113.186 105.589 122.598 105.747C135.542 105.966 137.287 106.147 144.882 108.066ZM108.896 115.336C101.247 116.796 95.4879 120.136 93.2401 124.414C92.1994 126.394 92.2378 131.115 93.31 133.025C94.7493 135.587 96.6868 137.05 102.045 139.618C107.134 142.057 107.267 142.08 116.089 142.071C124.232 142.063 125.435 141.894 130.133 140.096C133.824 138.684 136.092 137.287 138.183 135.136C140.785 132.46 141.095 131.794 141.095 128.866C141.095 121.883 135.744 117.417 124.889 115.34C118.815 114.178 114.966 114.176 108.896 115.336ZM128.621 126.331C130.238 126.997 131.454 127.889 131.323 128.313C130.56 130.794 120.546 133.223 113.691 132.589C109.014 132.156 102.607 130.083 102.202 128.87C101.941 128.086 105.662 126.133 109.099 125.252C112.852 124.288 125.337 124.979 128.621 126.331ZM175.532 156.314C175.436 161.683 175.094 166.163 174.77 166.271C174.445 166.38 169.495 169.541 163.769 173.296C158.043 177.05 153.216 180.122 153.041 180.122C152.868 180.122 150.919 181.356 148.711 182.863C146.503 184.37 144.374 185.603 143.981 185.603C143.587 185.603 143.162 185.842 143.036 186.133C142.91 186.424 141.266 187.659 139.382 188.878C137.498 190.097 135.494 191.399 134.929 191.773C132.424 193.429 119.439 201.736 111.294 206.893L102.387 212.531L97.1746 211.781C82.4506 209.663 66.6326 201.801 63.4997 195.046C62.6687 193.254 62.357 188.23 61.9672 170.36C61.441 146.235 61.3766 146.69 64.9446 149.206C74.6509 156.05 93.3812 160.843 112.736 161.435C136.22 162.153 155.121 158.182 170.253 149.351C172.868 147.825 175.164 146.572 175.355 146.565C175.547 146.559 175.626 150.945 175.532 156.314ZM176.034 184.638C176.034 188.562 175.667 191.999 175.105 193.332C174.027 195.888 167.685 202.045 166.13 202.045C165.548 202.045 165.073 202.308 165.073 202.629C165.073 203.173 158.447 206.38 153.769 208.101C149.756 209.576 140.669 211.604 134.947 212.3C128.145 213.128 121.223 213.225 121.236 212.493C121.244 212.037 133.642 203.929 155.482 190.093C159.438 187.586 165.45 183.746 168.841 181.558C172.232 179.37 175.238 177.707 175.521 177.864C175.804 178.02 176.034 181.069 176.034 184.638Z" fill="#E2E2E8"/>
</svg>
